G04 EAGLE Gerber RS-274X export*
G75*
%MOMM*%
%FSLAX34Y34*%
%LPD*%
%IN*%
%IPPOS*%
%AMOC8*
5,1,8,0,0,1.08239X$1,22.5*%
G01*
%ADD10C,0.254000*%


D10*
X0Y0D02*
X2273300Y0D01*
X2273300Y825500D01*
X0Y825500D01*
X0Y0D01*
X54100Y37576D02*
X54032Y36531D01*
X53895Y35492D01*
X53690Y34465D01*
X53419Y33453D01*
X53083Y32461D01*
X52682Y31493D01*
X52218Y30554D01*
X51695Y29646D01*
X51113Y28775D01*
X50475Y27944D01*
X49784Y27157D01*
X49043Y26416D01*
X48256Y25725D01*
X47425Y25088D01*
X46554Y24506D01*
X45646Y23982D01*
X44707Y23518D01*
X43739Y23117D01*
X42747Y22781D01*
X41735Y22510D01*
X40708Y22305D01*
X39669Y22169D01*
X38624Y22100D01*
X37576Y22100D01*
X36531Y22169D01*
X35492Y22305D01*
X34465Y22510D01*
X33453Y22781D01*
X32461Y23117D01*
X31493Y23518D01*
X30554Y23982D01*
X29646Y24506D01*
X28775Y25088D01*
X27944Y25725D01*
X27157Y26416D01*
X26416Y27157D01*
X25725Y27944D01*
X25088Y28775D01*
X24506Y29646D01*
X23982Y30554D01*
X23518Y31493D01*
X23117Y32461D01*
X22781Y33453D01*
X22510Y34465D01*
X22305Y35492D01*
X22169Y36531D01*
X22100Y37576D01*
X22100Y38624D01*
X22169Y39669D01*
X22305Y40708D01*
X22510Y41735D01*
X22781Y42747D01*
X23117Y43739D01*
X23518Y44707D01*
X23982Y45646D01*
X24506Y46554D01*
X25088Y47425D01*
X25725Y48256D01*
X26416Y49043D01*
X27157Y49784D01*
X27944Y50475D01*
X28775Y51113D01*
X29646Y51695D01*
X30554Y52218D01*
X31493Y52682D01*
X32461Y53083D01*
X33453Y53419D01*
X34465Y53690D01*
X35492Y53895D01*
X36531Y54032D01*
X37576Y54100D01*
X38624Y54100D01*
X39669Y54032D01*
X40708Y53895D01*
X41735Y53690D01*
X42747Y53419D01*
X43739Y53083D01*
X44707Y52682D01*
X45646Y52218D01*
X46554Y51695D01*
X47425Y51113D01*
X48256Y50475D01*
X49043Y49784D01*
X49784Y49043D01*
X50475Y48256D01*
X51113Y47425D01*
X51695Y46554D01*
X52218Y45646D01*
X52682Y44707D01*
X53083Y43739D01*
X53419Y42747D01*
X53690Y41735D01*
X53895Y40708D01*
X54032Y39669D01*
X54100Y38624D01*
X54100Y37576D01*
X54100Y786876D02*
X54032Y785831D01*
X53895Y784792D01*
X53690Y783765D01*
X53419Y782753D01*
X53083Y781761D01*
X52682Y780793D01*
X52218Y779854D01*
X51695Y778946D01*
X51113Y778075D01*
X50475Y777244D01*
X49784Y776457D01*
X49043Y775716D01*
X48256Y775025D01*
X47425Y774388D01*
X46554Y773806D01*
X45646Y773282D01*
X44707Y772818D01*
X43739Y772417D01*
X42747Y772081D01*
X41735Y771810D01*
X40708Y771605D01*
X39669Y771469D01*
X38624Y771400D01*
X37576Y771400D01*
X36531Y771469D01*
X35492Y771605D01*
X34465Y771810D01*
X33453Y772081D01*
X32461Y772417D01*
X31493Y772818D01*
X30554Y773282D01*
X29646Y773806D01*
X28775Y774388D01*
X27944Y775025D01*
X27157Y775716D01*
X26416Y776457D01*
X25725Y777244D01*
X25088Y778075D01*
X24506Y778946D01*
X23982Y779854D01*
X23518Y780793D01*
X23117Y781761D01*
X22781Y782753D01*
X22510Y783765D01*
X22305Y784792D01*
X22169Y785831D01*
X22100Y786876D01*
X22100Y787924D01*
X22169Y788969D01*
X22305Y790008D01*
X22510Y791035D01*
X22781Y792047D01*
X23117Y793039D01*
X23518Y794007D01*
X23982Y794946D01*
X24506Y795854D01*
X25088Y796725D01*
X25725Y797556D01*
X26416Y798343D01*
X27157Y799084D01*
X27944Y799775D01*
X28775Y800413D01*
X29646Y800995D01*
X30554Y801518D01*
X31493Y801982D01*
X32461Y802383D01*
X33453Y802719D01*
X34465Y802990D01*
X35492Y803195D01*
X36531Y803332D01*
X37576Y803400D01*
X38624Y803400D01*
X39669Y803332D01*
X40708Y803195D01*
X41735Y802990D01*
X42747Y802719D01*
X43739Y802383D01*
X44707Y801982D01*
X45646Y801518D01*
X46554Y800995D01*
X47425Y800413D01*
X48256Y799775D01*
X49043Y799084D01*
X49784Y798343D01*
X50475Y797556D01*
X51113Y796725D01*
X51695Y795854D01*
X52218Y794946D01*
X52682Y794007D01*
X53083Y793039D01*
X53419Y792047D01*
X53690Y791035D01*
X53895Y790008D01*
X54032Y788969D01*
X54100Y787924D01*
X54100Y786876D01*
X2251200Y786876D02*
X2251132Y785831D01*
X2250995Y784792D01*
X2250790Y783765D01*
X2250519Y782753D01*
X2250183Y781761D01*
X2249782Y780793D01*
X2249318Y779854D01*
X2248795Y778946D01*
X2248213Y778075D01*
X2247575Y777244D01*
X2246884Y776457D01*
X2246143Y775716D01*
X2245356Y775025D01*
X2244525Y774388D01*
X2243654Y773806D01*
X2242746Y773282D01*
X2241807Y772818D01*
X2240839Y772417D01*
X2239847Y772081D01*
X2238835Y771810D01*
X2237808Y771605D01*
X2236769Y771469D01*
X2235724Y771400D01*
X2234676Y771400D01*
X2233631Y771469D01*
X2232592Y771605D01*
X2231565Y771810D01*
X2230553Y772081D01*
X2229561Y772417D01*
X2228593Y772818D01*
X2227654Y773282D01*
X2226746Y773806D01*
X2225875Y774388D01*
X2225044Y775025D01*
X2224257Y775716D01*
X2223516Y776457D01*
X2222825Y777244D01*
X2222188Y778075D01*
X2221606Y778946D01*
X2221082Y779854D01*
X2220618Y780793D01*
X2220217Y781761D01*
X2219881Y782753D01*
X2219610Y783765D01*
X2219405Y784792D01*
X2219269Y785831D01*
X2219200Y786876D01*
X2219200Y787924D01*
X2219269Y788969D01*
X2219405Y790008D01*
X2219610Y791035D01*
X2219881Y792047D01*
X2220217Y793039D01*
X2220618Y794007D01*
X2221082Y794946D01*
X2221606Y795854D01*
X2222188Y796725D01*
X2222825Y797556D01*
X2223516Y798343D01*
X2224257Y799084D01*
X2225044Y799775D01*
X2225875Y800413D01*
X2226746Y800995D01*
X2227654Y801518D01*
X2228593Y801982D01*
X2229561Y802383D01*
X2230553Y802719D01*
X2231565Y802990D01*
X2232592Y803195D01*
X2233631Y803332D01*
X2234676Y803400D01*
X2235724Y803400D01*
X2236769Y803332D01*
X2237808Y803195D01*
X2238835Y802990D01*
X2239847Y802719D01*
X2240839Y802383D01*
X2241807Y801982D01*
X2242746Y801518D01*
X2243654Y800995D01*
X2244525Y800413D01*
X2245356Y799775D01*
X2246143Y799084D01*
X2246884Y798343D01*
X2247575Y797556D01*
X2248213Y796725D01*
X2248795Y795854D01*
X2249318Y794946D01*
X2249782Y794007D01*
X2250183Y793039D01*
X2250519Y792047D01*
X2250790Y791035D01*
X2250995Y790008D01*
X2251132Y788969D01*
X2251200Y787924D01*
X2251200Y786876D01*
X2251200Y37576D02*
X2251132Y36531D01*
X2250995Y35492D01*
X2250790Y34465D01*
X2250519Y33453D01*
X2250183Y32461D01*
X2249782Y31493D01*
X2249318Y30554D01*
X2248795Y29646D01*
X2248213Y28775D01*
X2247575Y27944D01*
X2246884Y27157D01*
X2246143Y26416D01*
X2245356Y25725D01*
X2244525Y25088D01*
X2243654Y24506D01*
X2242746Y23982D01*
X2241807Y23518D01*
X2240839Y23117D01*
X2239847Y22781D01*
X2238835Y22510D01*
X2237808Y22305D01*
X2236769Y22169D01*
X2235724Y22100D01*
X2234676Y22100D01*
X2233631Y22169D01*
X2232592Y22305D01*
X2231565Y22510D01*
X2230553Y22781D01*
X2229561Y23117D01*
X2228593Y23518D01*
X2227654Y23982D01*
X2226746Y24506D01*
X2225875Y25088D01*
X2225044Y25725D01*
X2224257Y26416D01*
X2223516Y27157D01*
X2222825Y27944D01*
X2222188Y28775D01*
X2221606Y29646D01*
X2221082Y30554D01*
X2220618Y31493D01*
X2220217Y32461D01*
X2219881Y33453D01*
X2219610Y34465D01*
X2219405Y35492D01*
X2219269Y36531D01*
X2219200Y37576D01*
X2219200Y38624D01*
X2219269Y39669D01*
X2219405Y40708D01*
X2219610Y41735D01*
X2219881Y42747D01*
X2220217Y43739D01*
X2220618Y44707D01*
X2221082Y45646D01*
X2221606Y46554D01*
X2222188Y47425D01*
X2222825Y48256D01*
X2223516Y49043D01*
X2224257Y49784D01*
X2225044Y50475D01*
X2225875Y51113D01*
X2226746Y51695D01*
X2227654Y52218D01*
X2228593Y52682D01*
X2229561Y53083D01*
X2230553Y53419D01*
X2231565Y53690D01*
X2232592Y53895D01*
X2233631Y54032D01*
X2234676Y54100D01*
X2235724Y54100D01*
X2236769Y54032D01*
X2237808Y53895D01*
X2238835Y53690D01*
X2239847Y53419D01*
X2240839Y53083D01*
X2241807Y52682D01*
X2242746Y52218D01*
X2243654Y51695D01*
X2244525Y51113D01*
X2245356Y50475D01*
X2246143Y49784D01*
X2246884Y49043D01*
X2247575Y48256D01*
X2248213Y47425D01*
X2248795Y46554D01*
X2249318Y45646D01*
X2249782Y44707D01*
X2250183Y43739D01*
X2250519Y42747D01*
X2250790Y41735D01*
X2250995Y40708D01*
X2251132Y39669D01*
X2251200Y38624D01*
X2251200Y37576D01*
X76800Y117118D02*
X76871Y118753D01*
X77014Y120383D01*
X77228Y122006D01*
X77512Y123618D01*
X77866Y125215D01*
X78290Y126796D01*
X78782Y128357D01*
X79341Y129895D01*
X79968Y131407D01*
X80659Y132890D01*
X81415Y134341D01*
X82233Y135759D01*
X83112Y137139D01*
X84051Y138479D01*
X85047Y139778D01*
X86099Y141031D01*
X87205Y142238D01*
X88362Y143395D01*
X89569Y144501D01*
X90822Y145553D01*
X92121Y146549D01*
X93461Y147488D01*
X94841Y148367D01*
X96259Y149185D01*
X97710Y149941D01*
X99193Y150632D01*
X100705Y151259D01*
X102243Y151818D01*
X103804Y152310D01*
X105385Y152734D01*
X106982Y153088D01*
X108594Y153372D01*
X110217Y153586D01*
X111847Y153729D01*
X113482Y153800D01*
X115118Y153800D01*
X116753Y153729D01*
X118383Y153586D01*
X120006Y153372D01*
X121618Y153088D01*
X123215Y152734D01*
X124796Y152310D01*
X126357Y151818D01*
X127895Y151259D01*
X129407Y150632D01*
X130890Y149941D01*
X132341Y149185D01*
X133759Y148367D01*
X135139Y147488D01*
X136479Y146549D01*
X137778Y145553D01*
X139031Y144501D01*
X140238Y143395D01*
X141395Y142238D01*
X142501Y141031D01*
X143553Y139778D01*
X144549Y138479D01*
X145488Y137139D01*
X146367Y135759D01*
X147185Y134341D01*
X147941Y132890D01*
X148632Y131407D01*
X149259Y129895D01*
X149818Y128357D01*
X150310Y126796D01*
X150734Y125215D01*
X151088Y123618D01*
X151372Y122006D01*
X151586Y120383D01*
X151729Y118753D01*
X151800Y117118D01*
X151800Y115482D01*
X151729Y113847D01*
X151586Y112217D01*
X151372Y110594D01*
X151088Y108982D01*
X150734Y107385D01*
X150310Y105804D01*
X149818Y104243D01*
X149259Y102705D01*
X148632Y101193D01*
X147941Y99710D01*
X147185Y98259D01*
X146367Y96841D01*
X145488Y95461D01*
X144549Y94121D01*
X143553Y92822D01*
X142501Y91569D01*
X141395Y90362D01*
X140238Y89205D01*
X139031Y88099D01*
X137778Y87047D01*
X136479Y86051D01*
X135139Y85112D01*
X133759Y84233D01*
X132341Y83415D01*
X130890Y82659D01*
X129407Y81968D01*
X127895Y81341D01*
X126357Y80782D01*
X124796Y80290D01*
X123215Y79866D01*
X121618Y79512D01*
X120006Y79228D01*
X118383Y79014D01*
X116753Y78871D01*
X115118Y78800D01*
X113482Y78800D01*
X111847Y78871D01*
X110217Y79014D01*
X108594Y79228D01*
X106982Y79512D01*
X105385Y79866D01*
X103804Y80290D01*
X102243Y80782D01*
X100705Y81341D01*
X99193Y81968D01*
X97710Y82659D01*
X96259Y83415D01*
X94841Y84233D01*
X93461Y85112D01*
X92121Y86051D01*
X90822Y87047D01*
X89569Y88099D01*
X88362Y89205D01*
X87205Y90362D01*
X86099Y91569D01*
X85047Y92822D01*
X84051Y94121D01*
X83112Y95461D01*
X82233Y96841D01*
X81415Y98259D01*
X80659Y99710D01*
X79968Y101193D01*
X79341Y102705D01*
X78782Y104243D01*
X78290Y105804D01*
X77866Y107385D01*
X77512Y108982D01*
X77228Y110594D01*
X77014Y112217D01*
X76871Y113847D01*
X76800Y115482D01*
X76800Y117118D01*
X177300Y116836D02*
X177376Y117904D01*
X177529Y118965D01*
X177757Y120012D01*
X178059Y121040D01*
X178433Y122044D01*
X178878Y123019D01*
X179392Y123959D01*
X179971Y124860D01*
X180613Y125718D01*
X181315Y126528D01*
X182072Y127285D01*
X182882Y127987D01*
X183740Y128629D01*
X184641Y129208D01*
X185581Y129722D01*
X186556Y130167D01*
X187560Y130541D01*
X188588Y130843D01*
X189635Y131071D01*
X190696Y131224D01*
X191764Y131300D01*
X192836Y131300D01*
X193904Y131224D01*
X194965Y131071D01*
X196012Y130843D01*
X197040Y130541D01*
X198044Y130167D01*
X199019Y129722D01*
X199959Y129208D01*
X200860Y128629D01*
X201718Y127987D01*
X202528Y127285D01*
X203285Y126528D01*
X203987Y125718D01*
X204629Y124860D01*
X205208Y123959D01*
X205722Y123019D01*
X206167Y122044D01*
X206541Y121040D01*
X206843Y120012D01*
X207071Y118965D01*
X207224Y117904D01*
X207300Y116836D01*
X207300Y115764D01*
X207224Y114696D01*
X207071Y113635D01*
X206843Y112588D01*
X206541Y111560D01*
X206167Y110556D01*
X205722Y109581D01*
X205208Y108641D01*
X204629Y107740D01*
X203987Y106882D01*
X203285Y106072D01*
X202528Y105315D01*
X201718Y104613D01*
X200860Y103971D01*
X199959Y103392D01*
X199019Y102878D01*
X198044Y102433D01*
X197040Y102059D01*
X196012Y101757D01*
X194965Y101529D01*
X193904Y101376D01*
X192836Y101300D01*
X191764Y101300D01*
X190696Y101376D01*
X189635Y101529D01*
X188588Y101757D01*
X187560Y102059D01*
X186556Y102433D01*
X185581Y102878D01*
X184641Y103392D01*
X183740Y103971D01*
X182882Y104613D01*
X182072Y105315D01*
X181315Y106072D01*
X180613Y106882D01*
X179971Y107740D01*
X179392Y108641D01*
X178878Y109581D01*
X178433Y110556D01*
X178059Y111560D01*
X177757Y112588D01*
X177529Y113635D01*
X177376Y114696D01*
X177300Y115764D01*
X177300Y116836D01*
X280000Y117118D02*
X280071Y118753D01*
X280214Y120383D01*
X280428Y122006D01*
X280712Y123618D01*
X281066Y125215D01*
X281490Y126796D01*
X281982Y128357D01*
X282541Y129895D01*
X283168Y131407D01*
X283859Y132890D01*
X284615Y134341D01*
X285433Y135759D01*
X286312Y137139D01*
X287251Y138479D01*
X288247Y139778D01*
X289299Y141031D01*
X290405Y142238D01*
X291562Y143395D01*
X292769Y144501D01*
X294022Y145553D01*
X295321Y146549D01*
X296661Y147488D01*
X298041Y148367D01*
X299459Y149185D01*
X300910Y149941D01*
X302393Y150632D01*
X303905Y151259D01*
X305443Y151818D01*
X307004Y152310D01*
X308585Y152734D01*
X310182Y153088D01*
X311794Y153372D01*
X313417Y153586D01*
X315047Y153729D01*
X316682Y153800D01*
X318318Y153800D01*
X319953Y153729D01*
X321583Y153586D01*
X323206Y153372D01*
X324818Y153088D01*
X326415Y152734D01*
X327996Y152310D01*
X329557Y151818D01*
X331095Y151259D01*
X332607Y150632D01*
X334090Y149941D01*
X335541Y149185D01*
X336959Y148367D01*
X338339Y147488D01*
X339679Y146549D01*
X340978Y145553D01*
X342231Y144501D01*
X343438Y143395D01*
X344595Y142238D01*
X345701Y141031D01*
X346753Y139778D01*
X347749Y138479D01*
X348688Y137139D01*
X349567Y135759D01*
X350385Y134341D01*
X351141Y132890D01*
X351832Y131407D01*
X352459Y129895D01*
X353018Y128357D01*
X353510Y126796D01*
X353934Y125215D01*
X354288Y123618D01*
X354572Y122006D01*
X354786Y120383D01*
X354929Y118753D01*
X355000Y117118D01*
X355000Y115482D01*
X354929Y113847D01*
X354786Y112217D01*
X354572Y110594D01*
X354288Y108982D01*
X353934Y107385D01*
X353510Y105804D01*
X353018Y104243D01*
X352459Y102705D01*
X351832Y101193D01*
X351141Y99710D01*
X350385Y98259D01*
X349567Y96841D01*
X348688Y95461D01*
X347749Y94121D01*
X346753Y92822D01*
X345701Y91569D01*
X344595Y90362D01*
X343438Y89205D01*
X342231Y88099D01*
X340978Y87047D01*
X339679Y86051D01*
X338339Y85112D01*
X336959Y84233D01*
X335541Y83415D01*
X334090Y82659D01*
X332607Y81968D01*
X331095Y81341D01*
X329557Y80782D01*
X327996Y80290D01*
X326415Y79866D01*
X324818Y79512D01*
X323206Y79228D01*
X321583Y79014D01*
X319953Y78871D01*
X318318Y78800D01*
X316682Y78800D01*
X315047Y78871D01*
X313417Y79014D01*
X311794Y79228D01*
X310182Y79512D01*
X308585Y79866D01*
X307004Y80290D01*
X305443Y80782D01*
X303905Y81341D01*
X302393Y81968D01*
X300910Y82659D01*
X299459Y83415D01*
X298041Y84233D01*
X296661Y85112D01*
X295321Y86051D01*
X294022Y87047D01*
X292769Y88099D01*
X291562Y89205D01*
X290405Y90362D01*
X289299Y91569D01*
X288247Y92822D01*
X287251Y94121D01*
X286312Y95461D01*
X285433Y96841D01*
X284615Y98259D01*
X283859Y99710D01*
X283168Y101193D01*
X282541Y102705D01*
X281982Y104243D01*
X281490Y105804D01*
X281066Y107385D01*
X280712Y108982D01*
X280428Y110594D01*
X280214Y112217D01*
X280071Y113847D01*
X280000Y115482D01*
X280000Y117118D01*
X380500Y116836D02*
X380576Y117904D01*
X380729Y118965D01*
X380957Y120012D01*
X381259Y121040D01*
X381633Y122044D01*
X382078Y123019D01*
X382592Y123959D01*
X383171Y124860D01*
X383813Y125718D01*
X384515Y126528D01*
X385272Y127285D01*
X386082Y127987D01*
X386940Y128629D01*
X387841Y129208D01*
X388781Y129722D01*
X389756Y130167D01*
X390760Y130541D01*
X391788Y130843D01*
X392835Y131071D01*
X393896Y131224D01*
X394964Y131300D01*
X396036Y131300D01*
X397104Y131224D01*
X398165Y131071D01*
X399212Y130843D01*
X400240Y130541D01*
X401244Y130167D01*
X402219Y129722D01*
X403159Y129208D01*
X404060Y128629D01*
X404918Y127987D01*
X405728Y127285D01*
X406485Y126528D01*
X407187Y125718D01*
X407829Y124860D01*
X408408Y123959D01*
X408922Y123019D01*
X409367Y122044D01*
X409741Y121040D01*
X410043Y120012D01*
X410271Y118965D01*
X410424Y117904D01*
X410500Y116836D01*
X410500Y115764D01*
X410424Y114696D01*
X410271Y113635D01*
X410043Y112588D01*
X409741Y111560D01*
X409367Y110556D01*
X408922Y109581D01*
X408408Y108641D01*
X407829Y107740D01*
X407187Y106882D01*
X406485Y106072D01*
X405728Y105315D01*
X404918Y104613D01*
X404060Y103971D01*
X403159Y103392D01*
X402219Y102878D01*
X401244Y102433D01*
X400240Y102059D01*
X399212Y101757D01*
X398165Y101529D01*
X397104Y101376D01*
X396036Y101300D01*
X394964Y101300D01*
X393896Y101376D01*
X392835Y101529D01*
X391788Y101757D01*
X390760Y102059D01*
X389756Y102433D01*
X388781Y102878D01*
X387841Y103392D01*
X386940Y103971D01*
X386082Y104613D01*
X385272Y105315D01*
X384515Y106072D01*
X383813Y106882D01*
X383171Y107740D01*
X382592Y108641D01*
X382078Y109581D01*
X381633Y110556D01*
X381259Y111560D01*
X380957Y112588D01*
X380729Y113635D01*
X380576Y114696D01*
X380500Y115764D01*
X380500Y116836D01*
X483200Y117118D02*
X483271Y118753D01*
X483414Y120383D01*
X483628Y122006D01*
X483912Y123618D01*
X484266Y125215D01*
X484690Y126796D01*
X485182Y128357D01*
X485741Y129895D01*
X486368Y131407D01*
X487059Y132890D01*
X487815Y134341D01*
X488633Y135759D01*
X489512Y137139D01*
X490451Y138479D01*
X491447Y139778D01*
X492499Y141031D01*
X493605Y142238D01*
X494762Y143395D01*
X495969Y144501D01*
X497222Y145553D01*
X498521Y146549D01*
X499861Y147488D01*
X501241Y148367D01*
X502659Y149185D01*
X504110Y149941D01*
X505593Y150632D01*
X507105Y151259D01*
X508643Y151818D01*
X510204Y152310D01*
X511785Y152734D01*
X513382Y153088D01*
X514994Y153372D01*
X516617Y153586D01*
X518247Y153729D01*
X519882Y153800D01*
X521518Y153800D01*
X523153Y153729D01*
X524783Y153586D01*
X526406Y153372D01*
X528018Y153088D01*
X529615Y152734D01*
X531196Y152310D01*
X532757Y151818D01*
X534295Y151259D01*
X535807Y150632D01*
X537290Y149941D01*
X538741Y149185D01*
X540159Y148367D01*
X541539Y147488D01*
X542879Y146549D01*
X544178Y145553D01*
X545431Y144501D01*
X546638Y143395D01*
X547795Y142238D01*
X548901Y141031D01*
X549953Y139778D01*
X550949Y138479D01*
X551888Y137139D01*
X552767Y135759D01*
X553585Y134341D01*
X554341Y132890D01*
X555032Y131407D01*
X555659Y129895D01*
X556218Y128357D01*
X556710Y126796D01*
X557134Y125215D01*
X557488Y123618D01*
X557772Y122006D01*
X557986Y120383D01*
X558129Y118753D01*
X558200Y117118D01*
X558200Y115482D01*
X558129Y113847D01*
X557986Y112217D01*
X557772Y110594D01*
X557488Y108982D01*
X557134Y107385D01*
X556710Y105804D01*
X556218Y104243D01*
X555659Y102705D01*
X555032Y101193D01*
X554341Y99710D01*
X553585Y98259D01*
X552767Y96841D01*
X551888Y95461D01*
X550949Y94121D01*
X549953Y92822D01*
X548901Y91569D01*
X547795Y90362D01*
X546638Y89205D01*
X545431Y88099D01*
X544178Y87047D01*
X542879Y86051D01*
X541539Y85112D01*
X540159Y84233D01*
X538741Y83415D01*
X537290Y82659D01*
X535807Y81968D01*
X534295Y81341D01*
X532757Y80782D01*
X531196Y80290D01*
X529615Y79866D01*
X528018Y79512D01*
X526406Y79228D01*
X524783Y79014D01*
X523153Y78871D01*
X521518Y78800D01*
X519882Y78800D01*
X518247Y78871D01*
X516617Y79014D01*
X514994Y79228D01*
X513382Y79512D01*
X511785Y79866D01*
X510204Y80290D01*
X508643Y80782D01*
X507105Y81341D01*
X505593Y81968D01*
X504110Y82659D01*
X502659Y83415D01*
X501241Y84233D01*
X499861Y85112D01*
X498521Y86051D01*
X497222Y87047D01*
X495969Y88099D01*
X494762Y89205D01*
X493605Y90362D01*
X492499Y91569D01*
X491447Y92822D01*
X490451Y94121D01*
X489512Y95461D01*
X488633Y96841D01*
X487815Y98259D01*
X487059Y99710D01*
X486368Y101193D01*
X485741Y102705D01*
X485182Y104243D01*
X484690Y105804D01*
X484266Y107385D01*
X483912Y108982D01*
X483628Y110594D01*
X483414Y112217D01*
X483271Y113847D01*
X483200Y115482D01*
X483200Y117118D01*
X583700Y116836D02*
X583776Y117904D01*
X583929Y118965D01*
X584157Y120012D01*
X584459Y121040D01*
X584833Y122044D01*
X585278Y123019D01*
X585792Y123959D01*
X586371Y124860D01*
X587013Y125718D01*
X587715Y126528D01*
X588472Y127285D01*
X589282Y127987D01*
X590140Y128629D01*
X591041Y129208D01*
X591981Y129722D01*
X592956Y130167D01*
X593960Y130541D01*
X594988Y130843D01*
X596035Y131071D01*
X597096Y131224D01*
X598164Y131300D01*
X599236Y131300D01*
X600304Y131224D01*
X601365Y131071D01*
X602412Y130843D01*
X603440Y130541D01*
X604444Y130167D01*
X605419Y129722D01*
X606359Y129208D01*
X607260Y128629D01*
X608118Y127987D01*
X608928Y127285D01*
X609685Y126528D01*
X610387Y125718D01*
X611029Y124860D01*
X611608Y123959D01*
X612122Y123019D01*
X612567Y122044D01*
X612941Y121040D01*
X613243Y120012D01*
X613471Y118965D01*
X613624Y117904D01*
X613700Y116836D01*
X613700Y115764D01*
X613624Y114696D01*
X613471Y113635D01*
X613243Y112588D01*
X612941Y111560D01*
X612567Y110556D01*
X612122Y109581D01*
X611608Y108641D01*
X611029Y107740D01*
X610387Y106882D01*
X609685Y106072D01*
X608928Y105315D01*
X608118Y104613D01*
X607260Y103971D01*
X606359Y103392D01*
X605419Y102878D01*
X604444Y102433D01*
X603440Y102059D01*
X602412Y101757D01*
X601365Y101529D01*
X600304Y101376D01*
X599236Y101300D01*
X598164Y101300D01*
X597096Y101376D01*
X596035Y101529D01*
X594988Y101757D01*
X593960Y102059D01*
X592956Y102433D01*
X591981Y102878D01*
X591041Y103392D01*
X590140Y103971D01*
X589282Y104613D01*
X588472Y105315D01*
X587715Y106072D01*
X587013Y106882D01*
X586371Y107740D01*
X585792Y108641D01*
X585278Y109581D01*
X584833Y110556D01*
X584459Y111560D01*
X584157Y112588D01*
X583929Y113635D01*
X583776Y114696D01*
X583700Y115764D01*
X583700Y116836D01*
X686400Y117118D02*
X686471Y118753D01*
X686614Y120383D01*
X686828Y122006D01*
X687112Y123618D01*
X687466Y125215D01*
X687890Y126796D01*
X688382Y128357D01*
X688941Y129895D01*
X689568Y131407D01*
X690259Y132890D01*
X691015Y134341D01*
X691833Y135759D01*
X692712Y137139D01*
X693651Y138479D01*
X694647Y139778D01*
X695699Y141031D01*
X696805Y142238D01*
X697962Y143395D01*
X699169Y144501D01*
X700422Y145553D01*
X701721Y146549D01*
X703061Y147488D01*
X704441Y148367D01*
X705859Y149185D01*
X707310Y149941D01*
X708793Y150632D01*
X710305Y151259D01*
X711843Y151818D01*
X713404Y152310D01*
X714985Y152734D01*
X716582Y153088D01*
X718194Y153372D01*
X719817Y153586D01*
X721447Y153729D01*
X723082Y153800D01*
X724718Y153800D01*
X726353Y153729D01*
X727983Y153586D01*
X729606Y153372D01*
X731218Y153088D01*
X732815Y152734D01*
X734396Y152310D01*
X735957Y151818D01*
X737495Y151259D01*
X739007Y150632D01*
X740490Y149941D01*
X741941Y149185D01*
X743359Y148367D01*
X744739Y147488D01*
X746079Y146549D01*
X747378Y145553D01*
X748631Y144501D01*
X749838Y143395D01*
X750995Y142238D01*
X752101Y141031D01*
X753153Y139778D01*
X754149Y138479D01*
X755088Y137139D01*
X755967Y135759D01*
X756785Y134341D01*
X757541Y132890D01*
X758232Y131407D01*
X758859Y129895D01*
X759418Y128357D01*
X759910Y126796D01*
X760334Y125215D01*
X760688Y123618D01*
X760972Y122006D01*
X761186Y120383D01*
X761329Y118753D01*
X761400Y117118D01*
X761400Y115482D01*
X761329Y113847D01*
X761186Y112217D01*
X760972Y110594D01*
X760688Y108982D01*
X760334Y107385D01*
X759910Y105804D01*
X759418Y104243D01*
X758859Y102705D01*
X758232Y101193D01*
X757541Y99710D01*
X756785Y98259D01*
X755967Y96841D01*
X755088Y95461D01*
X754149Y94121D01*
X753153Y92822D01*
X752101Y91569D01*
X750995Y90362D01*
X749838Y89205D01*
X748631Y88099D01*
X747378Y87047D01*
X746079Y86051D01*
X744739Y85112D01*
X743359Y84233D01*
X741941Y83415D01*
X740490Y82659D01*
X739007Y81968D01*
X737495Y81341D01*
X735957Y80782D01*
X734396Y80290D01*
X732815Y79866D01*
X731218Y79512D01*
X729606Y79228D01*
X727983Y79014D01*
X726353Y78871D01*
X724718Y78800D01*
X723082Y78800D01*
X721447Y78871D01*
X719817Y79014D01*
X718194Y79228D01*
X716582Y79512D01*
X714985Y79866D01*
X713404Y80290D01*
X711843Y80782D01*
X710305Y81341D01*
X708793Y81968D01*
X707310Y82659D01*
X705859Y83415D01*
X704441Y84233D01*
X703061Y85112D01*
X701721Y86051D01*
X700422Y87047D01*
X699169Y88099D01*
X697962Y89205D01*
X696805Y90362D01*
X695699Y91569D01*
X694647Y92822D01*
X693651Y94121D01*
X692712Y95461D01*
X691833Y96841D01*
X691015Y98259D01*
X690259Y99710D01*
X689568Y101193D01*
X688941Y102705D01*
X688382Y104243D01*
X687890Y105804D01*
X687466Y107385D01*
X687112Y108982D01*
X686828Y110594D01*
X686614Y112217D01*
X686471Y113847D01*
X686400Y115482D01*
X686400Y117118D01*
X786900Y116836D02*
X786976Y117904D01*
X787129Y118965D01*
X787357Y120012D01*
X787659Y121040D01*
X788033Y122044D01*
X788478Y123019D01*
X788992Y123959D01*
X789571Y124860D01*
X790213Y125718D01*
X790915Y126528D01*
X791672Y127285D01*
X792482Y127987D01*
X793340Y128629D01*
X794241Y129208D01*
X795181Y129722D01*
X796156Y130167D01*
X797160Y130541D01*
X798188Y130843D01*
X799235Y131071D01*
X800296Y131224D01*
X801364Y131300D01*
X802436Y131300D01*
X803504Y131224D01*
X804565Y131071D01*
X805612Y130843D01*
X806640Y130541D01*
X807644Y130167D01*
X808619Y129722D01*
X809559Y129208D01*
X810460Y128629D01*
X811318Y127987D01*
X812128Y127285D01*
X812885Y126528D01*
X813587Y125718D01*
X814229Y124860D01*
X814808Y123959D01*
X815322Y123019D01*
X815767Y122044D01*
X816141Y121040D01*
X816443Y120012D01*
X816671Y118965D01*
X816824Y117904D01*
X816900Y116836D01*
X816900Y115764D01*
X816824Y114696D01*
X816671Y113635D01*
X816443Y112588D01*
X816141Y111560D01*
X815767Y110556D01*
X815322Y109581D01*
X814808Y108641D01*
X814229Y107740D01*
X813587Y106882D01*
X812885Y106072D01*
X812128Y105315D01*
X811318Y104613D01*
X810460Y103971D01*
X809559Y103392D01*
X808619Y102878D01*
X807644Y102433D01*
X806640Y102059D01*
X805612Y101757D01*
X804565Y101529D01*
X803504Y101376D01*
X802436Y101300D01*
X801364Y101300D01*
X800296Y101376D01*
X799235Y101529D01*
X798188Y101757D01*
X797160Y102059D01*
X796156Y102433D01*
X795181Y102878D01*
X794241Y103392D01*
X793340Y103971D01*
X792482Y104613D01*
X791672Y105315D01*
X790915Y106072D01*
X790213Y106882D01*
X789571Y107740D01*
X788992Y108641D01*
X788478Y109581D01*
X788033Y110556D01*
X787659Y111560D01*
X787357Y112588D01*
X787129Y113635D01*
X786976Y114696D01*
X786900Y115764D01*
X786900Y116836D01*
X889600Y117118D02*
X889671Y118753D01*
X889814Y120383D01*
X890028Y122006D01*
X890312Y123618D01*
X890666Y125215D01*
X891090Y126796D01*
X891582Y128357D01*
X892141Y129895D01*
X892768Y131407D01*
X893459Y132890D01*
X894215Y134341D01*
X895033Y135759D01*
X895912Y137139D01*
X896851Y138479D01*
X897847Y139778D01*
X898899Y141031D01*
X900005Y142238D01*
X901162Y143395D01*
X902369Y144501D01*
X903622Y145553D01*
X904921Y146549D01*
X906261Y147488D01*
X907641Y148367D01*
X909059Y149185D01*
X910510Y149941D01*
X911993Y150632D01*
X913505Y151259D01*
X915043Y151818D01*
X916604Y152310D01*
X918185Y152734D01*
X919782Y153088D01*
X921394Y153372D01*
X923017Y153586D01*
X924647Y153729D01*
X926282Y153800D01*
X927918Y153800D01*
X929553Y153729D01*
X931183Y153586D01*
X932806Y153372D01*
X934418Y153088D01*
X936015Y152734D01*
X937596Y152310D01*
X939157Y151818D01*
X940695Y151259D01*
X942207Y150632D01*
X943690Y149941D01*
X945141Y149185D01*
X946559Y148367D01*
X947939Y147488D01*
X949279Y146549D01*
X950578Y145553D01*
X951831Y144501D01*
X953038Y143395D01*
X954195Y142238D01*
X955301Y141031D01*
X956353Y139778D01*
X957349Y138479D01*
X958288Y137139D01*
X959167Y135759D01*
X959985Y134341D01*
X960741Y132890D01*
X961432Y131407D01*
X962059Y129895D01*
X962618Y128357D01*
X963110Y126796D01*
X963534Y125215D01*
X963888Y123618D01*
X964172Y122006D01*
X964386Y120383D01*
X964529Y118753D01*
X964600Y117118D01*
X964600Y115482D01*
X964529Y113847D01*
X964386Y112217D01*
X964172Y110594D01*
X963888Y108982D01*
X963534Y107385D01*
X963110Y105804D01*
X962618Y104243D01*
X962059Y102705D01*
X961432Y101193D01*
X960741Y99710D01*
X959985Y98259D01*
X959167Y96841D01*
X958288Y95461D01*
X957349Y94121D01*
X956353Y92822D01*
X955301Y91569D01*
X954195Y90362D01*
X953038Y89205D01*
X951831Y88099D01*
X950578Y87047D01*
X949279Y86051D01*
X947939Y85112D01*
X946559Y84233D01*
X945141Y83415D01*
X943690Y82659D01*
X942207Y81968D01*
X940695Y81341D01*
X939157Y80782D01*
X937596Y80290D01*
X936015Y79866D01*
X934418Y79512D01*
X932806Y79228D01*
X931183Y79014D01*
X929553Y78871D01*
X927918Y78800D01*
X926282Y78800D01*
X924647Y78871D01*
X923017Y79014D01*
X921394Y79228D01*
X919782Y79512D01*
X918185Y79866D01*
X916604Y80290D01*
X915043Y80782D01*
X913505Y81341D01*
X911993Y81968D01*
X910510Y82659D01*
X909059Y83415D01*
X907641Y84233D01*
X906261Y85112D01*
X904921Y86051D01*
X903622Y87047D01*
X902369Y88099D01*
X901162Y89205D01*
X900005Y90362D01*
X898899Y91569D01*
X897847Y92822D01*
X896851Y94121D01*
X895912Y95461D01*
X895033Y96841D01*
X894215Y98259D01*
X893459Y99710D01*
X892768Y101193D01*
X892141Y102705D01*
X891582Y104243D01*
X891090Y105804D01*
X890666Y107385D01*
X890312Y108982D01*
X890028Y110594D01*
X889814Y112217D01*
X889671Y113847D01*
X889600Y115482D01*
X889600Y117118D01*
X990100Y116836D02*
X990176Y117904D01*
X990329Y118965D01*
X990557Y120012D01*
X990859Y121040D01*
X991233Y122044D01*
X991678Y123019D01*
X992192Y123959D01*
X992771Y124860D01*
X993413Y125718D01*
X994115Y126528D01*
X994872Y127285D01*
X995682Y127987D01*
X996540Y128629D01*
X997441Y129208D01*
X998381Y129722D01*
X999356Y130167D01*
X1000360Y130541D01*
X1001388Y130843D01*
X1002435Y131071D01*
X1003496Y131224D01*
X1004564Y131300D01*
X1005636Y131300D01*
X1006704Y131224D01*
X1007765Y131071D01*
X1008812Y130843D01*
X1009840Y130541D01*
X1010844Y130167D01*
X1011819Y129722D01*
X1012759Y129208D01*
X1013660Y128629D01*
X1014518Y127987D01*
X1015328Y127285D01*
X1016085Y126528D01*
X1016787Y125718D01*
X1017429Y124860D01*
X1018008Y123959D01*
X1018522Y123019D01*
X1018967Y122044D01*
X1019341Y121040D01*
X1019643Y120012D01*
X1019871Y118965D01*
X1020024Y117904D01*
X1020100Y116836D01*
X1020100Y115764D01*
X1020024Y114696D01*
X1019871Y113635D01*
X1019643Y112588D01*
X1019341Y111560D01*
X1018967Y110556D01*
X1018522Y109581D01*
X1018008Y108641D01*
X1017429Y107740D01*
X1016787Y106882D01*
X1016085Y106072D01*
X1015328Y105315D01*
X1014518Y104613D01*
X1013660Y103971D01*
X1012759Y103392D01*
X1011819Y102878D01*
X1010844Y102433D01*
X1009840Y102059D01*
X1008812Y101757D01*
X1007765Y101529D01*
X1006704Y101376D01*
X1005636Y101300D01*
X1004564Y101300D01*
X1003496Y101376D01*
X1002435Y101529D01*
X1001388Y101757D01*
X1000360Y102059D01*
X999356Y102433D01*
X998381Y102878D01*
X997441Y103392D01*
X996540Y103971D01*
X995682Y104613D01*
X994872Y105315D01*
X994115Y106072D01*
X993413Y106882D01*
X992771Y107740D01*
X992192Y108641D01*
X991678Y109581D01*
X991233Y110556D01*
X990859Y111560D01*
X990557Y112588D01*
X990329Y113635D01*
X990176Y114696D01*
X990100Y115764D01*
X990100Y116836D01*
X1092800Y117118D02*
X1092871Y118753D01*
X1093014Y120383D01*
X1093228Y122006D01*
X1093512Y123618D01*
X1093866Y125215D01*
X1094290Y126796D01*
X1094782Y128357D01*
X1095341Y129895D01*
X1095968Y131407D01*
X1096659Y132890D01*
X1097415Y134341D01*
X1098233Y135759D01*
X1099112Y137139D01*
X1100051Y138479D01*
X1101047Y139778D01*
X1102099Y141031D01*
X1103205Y142238D01*
X1104362Y143395D01*
X1105569Y144501D01*
X1106822Y145553D01*
X1108121Y146549D01*
X1109461Y147488D01*
X1110841Y148367D01*
X1112259Y149185D01*
X1113710Y149941D01*
X1115193Y150632D01*
X1116705Y151259D01*
X1118243Y151818D01*
X1119804Y152310D01*
X1121385Y152734D01*
X1122982Y153088D01*
X1124594Y153372D01*
X1126217Y153586D01*
X1127847Y153729D01*
X1129482Y153800D01*
X1131118Y153800D01*
X1132753Y153729D01*
X1134383Y153586D01*
X1136006Y153372D01*
X1137618Y153088D01*
X1139215Y152734D01*
X1140796Y152310D01*
X1142357Y151818D01*
X1143895Y151259D01*
X1145407Y150632D01*
X1146890Y149941D01*
X1148341Y149185D01*
X1149759Y148367D01*
X1151139Y147488D01*
X1152479Y146549D01*
X1153778Y145553D01*
X1155031Y144501D01*
X1156238Y143395D01*
X1157395Y142238D01*
X1158501Y141031D01*
X1159553Y139778D01*
X1160549Y138479D01*
X1161488Y137139D01*
X1162367Y135759D01*
X1163185Y134341D01*
X1163941Y132890D01*
X1164632Y131407D01*
X1165259Y129895D01*
X1165818Y128357D01*
X1166310Y126796D01*
X1166734Y125215D01*
X1167088Y123618D01*
X1167372Y122006D01*
X1167586Y120383D01*
X1167729Y118753D01*
X1167800Y117118D01*
X1167800Y115482D01*
X1167729Y113847D01*
X1167586Y112217D01*
X1167372Y110594D01*
X1167088Y108982D01*
X1166734Y107385D01*
X1166310Y105804D01*
X1165818Y104243D01*
X1165259Y102705D01*
X1164632Y101193D01*
X1163941Y99710D01*
X1163185Y98259D01*
X1162367Y96841D01*
X1161488Y95461D01*
X1160549Y94121D01*
X1159553Y92822D01*
X1158501Y91569D01*
X1157395Y90362D01*
X1156238Y89205D01*
X1155031Y88099D01*
X1153778Y87047D01*
X1152479Y86051D01*
X1151139Y85112D01*
X1149759Y84233D01*
X1148341Y83415D01*
X1146890Y82659D01*
X1145407Y81968D01*
X1143895Y81341D01*
X1142357Y80782D01*
X1140796Y80290D01*
X1139215Y79866D01*
X1137618Y79512D01*
X1136006Y79228D01*
X1134383Y79014D01*
X1132753Y78871D01*
X1131118Y78800D01*
X1129482Y78800D01*
X1127847Y78871D01*
X1126217Y79014D01*
X1124594Y79228D01*
X1122982Y79512D01*
X1121385Y79866D01*
X1119804Y80290D01*
X1118243Y80782D01*
X1116705Y81341D01*
X1115193Y81968D01*
X1113710Y82659D01*
X1112259Y83415D01*
X1110841Y84233D01*
X1109461Y85112D01*
X1108121Y86051D01*
X1106822Y87047D01*
X1105569Y88099D01*
X1104362Y89205D01*
X1103205Y90362D01*
X1102099Y91569D01*
X1101047Y92822D01*
X1100051Y94121D01*
X1099112Y95461D01*
X1098233Y96841D01*
X1097415Y98259D01*
X1096659Y99710D01*
X1095968Y101193D01*
X1095341Y102705D01*
X1094782Y104243D01*
X1094290Y105804D01*
X1093866Y107385D01*
X1093512Y108982D01*
X1093228Y110594D01*
X1093014Y112217D01*
X1092871Y113847D01*
X1092800Y115482D01*
X1092800Y117118D01*
X1193300Y116836D02*
X1193376Y117904D01*
X1193529Y118965D01*
X1193757Y120012D01*
X1194059Y121040D01*
X1194433Y122044D01*
X1194878Y123019D01*
X1195392Y123959D01*
X1195971Y124860D01*
X1196613Y125718D01*
X1197315Y126528D01*
X1198072Y127285D01*
X1198882Y127987D01*
X1199740Y128629D01*
X1200641Y129208D01*
X1201581Y129722D01*
X1202556Y130167D01*
X1203560Y130541D01*
X1204588Y130843D01*
X1205635Y131071D01*
X1206696Y131224D01*
X1207764Y131300D01*
X1208836Y131300D01*
X1209904Y131224D01*
X1210965Y131071D01*
X1212012Y130843D01*
X1213040Y130541D01*
X1214044Y130167D01*
X1215019Y129722D01*
X1215959Y129208D01*
X1216860Y128629D01*
X1217718Y127987D01*
X1218528Y127285D01*
X1219285Y126528D01*
X1219987Y125718D01*
X1220629Y124860D01*
X1221208Y123959D01*
X1221722Y123019D01*
X1222167Y122044D01*
X1222541Y121040D01*
X1222843Y120012D01*
X1223071Y118965D01*
X1223224Y117904D01*
X1223300Y116836D01*
X1223300Y115764D01*
X1223224Y114696D01*
X1223071Y113635D01*
X1222843Y112588D01*
X1222541Y111560D01*
X1222167Y110556D01*
X1221722Y109581D01*
X1221208Y108641D01*
X1220629Y107740D01*
X1219987Y106882D01*
X1219285Y106072D01*
X1218528Y105315D01*
X1217718Y104613D01*
X1216860Y103971D01*
X1215959Y103392D01*
X1215019Y102878D01*
X1214044Y102433D01*
X1213040Y102059D01*
X1212012Y101757D01*
X1210965Y101529D01*
X1209904Y101376D01*
X1208836Y101300D01*
X1207764Y101300D01*
X1206696Y101376D01*
X1205635Y101529D01*
X1204588Y101757D01*
X1203560Y102059D01*
X1202556Y102433D01*
X1201581Y102878D01*
X1200641Y103392D01*
X1199740Y103971D01*
X1198882Y104613D01*
X1198072Y105315D01*
X1197315Y106072D01*
X1196613Y106882D01*
X1195971Y107740D01*
X1195392Y108641D01*
X1194878Y109581D01*
X1194433Y110556D01*
X1194059Y111560D01*
X1193757Y112588D01*
X1193529Y113635D01*
X1193376Y114696D01*
X1193300Y115764D01*
X1193300Y116836D01*
X1296000Y117118D02*
X1296071Y118753D01*
X1296214Y120383D01*
X1296428Y122006D01*
X1296712Y123618D01*
X1297066Y125215D01*
X1297490Y126796D01*
X1297982Y128357D01*
X1298541Y129895D01*
X1299168Y131407D01*
X1299859Y132890D01*
X1300615Y134341D01*
X1301433Y135759D01*
X1302312Y137139D01*
X1303251Y138479D01*
X1304247Y139778D01*
X1305299Y141031D01*
X1306405Y142238D01*
X1307562Y143395D01*
X1308769Y144501D01*
X1310022Y145553D01*
X1311321Y146549D01*
X1312661Y147488D01*
X1314041Y148367D01*
X1315459Y149185D01*
X1316910Y149941D01*
X1318393Y150632D01*
X1319905Y151259D01*
X1321443Y151818D01*
X1323004Y152310D01*
X1324585Y152734D01*
X1326182Y153088D01*
X1327794Y153372D01*
X1329417Y153586D01*
X1331047Y153729D01*
X1332682Y153800D01*
X1334318Y153800D01*
X1335953Y153729D01*
X1337583Y153586D01*
X1339206Y153372D01*
X1340818Y153088D01*
X1342415Y152734D01*
X1343996Y152310D01*
X1345557Y151818D01*
X1347095Y151259D01*
X1348607Y150632D01*
X1350090Y149941D01*
X1351541Y149185D01*
X1352959Y148367D01*
X1354339Y147488D01*
X1355679Y146549D01*
X1356978Y145553D01*
X1358231Y144501D01*
X1359438Y143395D01*
X1360595Y142238D01*
X1361701Y141031D01*
X1362753Y139778D01*
X1363749Y138479D01*
X1364688Y137139D01*
X1365567Y135759D01*
X1366385Y134341D01*
X1367141Y132890D01*
X1367832Y131407D01*
X1368459Y129895D01*
X1369018Y128357D01*
X1369510Y126796D01*
X1369934Y125215D01*
X1370288Y123618D01*
X1370572Y122006D01*
X1370786Y120383D01*
X1370929Y118753D01*
X1371000Y117118D01*
X1371000Y115482D01*
X1370929Y113847D01*
X1370786Y112217D01*
X1370572Y110594D01*
X1370288Y108982D01*
X1369934Y107385D01*
X1369510Y105804D01*
X1369018Y104243D01*
X1368459Y102705D01*
X1367832Y101193D01*
X1367141Y99710D01*
X1366385Y98259D01*
X1365567Y96841D01*
X1364688Y95461D01*
X1363749Y94121D01*
X1362753Y92822D01*
X1361701Y91569D01*
X1360595Y90362D01*
X1359438Y89205D01*
X1358231Y88099D01*
X1356978Y87047D01*
X1355679Y86051D01*
X1354339Y85112D01*
X1352959Y84233D01*
X1351541Y83415D01*
X1350090Y82659D01*
X1348607Y81968D01*
X1347095Y81341D01*
X1345557Y80782D01*
X1343996Y80290D01*
X1342415Y79866D01*
X1340818Y79512D01*
X1339206Y79228D01*
X1337583Y79014D01*
X1335953Y78871D01*
X1334318Y78800D01*
X1332682Y78800D01*
X1331047Y78871D01*
X1329417Y79014D01*
X1327794Y79228D01*
X1326182Y79512D01*
X1324585Y79866D01*
X1323004Y80290D01*
X1321443Y80782D01*
X1319905Y81341D01*
X1318393Y81968D01*
X1316910Y82659D01*
X1315459Y83415D01*
X1314041Y84233D01*
X1312661Y85112D01*
X1311321Y86051D01*
X1310022Y87047D01*
X1308769Y88099D01*
X1307562Y89205D01*
X1306405Y90362D01*
X1305299Y91569D01*
X1304247Y92822D01*
X1303251Y94121D01*
X1302312Y95461D01*
X1301433Y96841D01*
X1300615Y98259D01*
X1299859Y99710D01*
X1299168Y101193D01*
X1298541Y102705D01*
X1297982Y104243D01*
X1297490Y105804D01*
X1297066Y107385D01*
X1296712Y108982D01*
X1296428Y110594D01*
X1296214Y112217D01*
X1296071Y113847D01*
X1296000Y115482D01*
X1296000Y117118D01*
X1396500Y116836D02*
X1396576Y117904D01*
X1396729Y118965D01*
X1396957Y120012D01*
X1397259Y121040D01*
X1397633Y122044D01*
X1398078Y123019D01*
X1398592Y123959D01*
X1399171Y124860D01*
X1399813Y125718D01*
X1400515Y126528D01*
X1401272Y127285D01*
X1402082Y127987D01*
X1402940Y128629D01*
X1403841Y129208D01*
X1404781Y129722D01*
X1405756Y130167D01*
X1406760Y130541D01*
X1407788Y130843D01*
X1408835Y131071D01*
X1409896Y131224D01*
X1410964Y131300D01*
X1412036Y131300D01*
X1413104Y131224D01*
X1414165Y131071D01*
X1415212Y130843D01*
X1416240Y130541D01*
X1417244Y130167D01*
X1418219Y129722D01*
X1419159Y129208D01*
X1420060Y128629D01*
X1420918Y127987D01*
X1421728Y127285D01*
X1422485Y126528D01*
X1423187Y125718D01*
X1423829Y124860D01*
X1424408Y123959D01*
X1424922Y123019D01*
X1425367Y122044D01*
X1425741Y121040D01*
X1426043Y120012D01*
X1426271Y118965D01*
X1426424Y117904D01*
X1426500Y116836D01*
X1426500Y115764D01*
X1426424Y114696D01*
X1426271Y113635D01*
X1426043Y112588D01*
X1425741Y111560D01*
X1425367Y110556D01*
X1424922Y109581D01*
X1424408Y108641D01*
X1423829Y107740D01*
X1423187Y106882D01*
X1422485Y106072D01*
X1421728Y105315D01*
X1420918Y104613D01*
X1420060Y103971D01*
X1419159Y103392D01*
X1418219Y102878D01*
X1417244Y102433D01*
X1416240Y102059D01*
X1415212Y101757D01*
X1414165Y101529D01*
X1413104Y101376D01*
X1412036Y101300D01*
X1410964Y101300D01*
X1409896Y101376D01*
X1408835Y101529D01*
X1407788Y101757D01*
X1406760Y102059D01*
X1405756Y102433D01*
X1404781Y102878D01*
X1403841Y103392D01*
X1402940Y103971D01*
X1402082Y104613D01*
X1401272Y105315D01*
X1400515Y106072D01*
X1399813Y106882D01*
X1399171Y107740D01*
X1398592Y108641D01*
X1398078Y109581D01*
X1397633Y110556D01*
X1397259Y111560D01*
X1396957Y112588D01*
X1396729Y113635D01*
X1396576Y114696D01*
X1396500Y115764D01*
X1396500Y116836D01*
X1499200Y117118D02*
X1499271Y118753D01*
X1499414Y120383D01*
X1499628Y122006D01*
X1499912Y123618D01*
X1500266Y125215D01*
X1500690Y126796D01*
X1501182Y128357D01*
X1501741Y129895D01*
X1502368Y131407D01*
X1503059Y132890D01*
X1503815Y134341D01*
X1504633Y135759D01*
X1505512Y137139D01*
X1506451Y138479D01*
X1507447Y139778D01*
X1508499Y141031D01*
X1509605Y142238D01*
X1510762Y143395D01*
X1511969Y144501D01*
X1513222Y145553D01*
X1514521Y146549D01*
X1515861Y147488D01*
X1517241Y148367D01*
X1518659Y149185D01*
X1520110Y149941D01*
X1521593Y150632D01*
X1523105Y151259D01*
X1524643Y151818D01*
X1526204Y152310D01*
X1527785Y152734D01*
X1529382Y153088D01*
X1530994Y153372D01*
X1532617Y153586D01*
X1534247Y153729D01*
X1535882Y153800D01*
X1537518Y153800D01*
X1539153Y153729D01*
X1540783Y153586D01*
X1542406Y153372D01*
X1544018Y153088D01*
X1545615Y152734D01*
X1547196Y152310D01*
X1548757Y151818D01*
X1550295Y151259D01*
X1551807Y150632D01*
X1553290Y149941D01*
X1554741Y149185D01*
X1556159Y148367D01*
X1557539Y147488D01*
X1558879Y146549D01*
X1560178Y145553D01*
X1561431Y144501D01*
X1562638Y143395D01*
X1563795Y142238D01*
X1564901Y141031D01*
X1565953Y139778D01*
X1566949Y138479D01*
X1567888Y137139D01*
X1568767Y135759D01*
X1569585Y134341D01*
X1570341Y132890D01*
X1571032Y131407D01*
X1571659Y129895D01*
X1572218Y128357D01*
X1572710Y126796D01*
X1573134Y125215D01*
X1573488Y123618D01*
X1573772Y122006D01*
X1573986Y120383D01*
X1574129Y118753D01*
X1574200Y117118D01*
X1574200Y115482D01*
X1574129Y113847D01*
X1573986Y112217D01*
X1573772Y110594D01*
X1573488Y108982D01*
X1573134Y107385D01*
X1572710Y105804D01*
X1572218Y104243D01*
X1571659Y102705D01*
X1571032Y101193D01*
X1570341Y99710D01*
X1569585Y98259D01*
X1568767Y96841D01*
X1567888Y95461D01*
X1566949Y94121D01*
X1565953Y92822D01*
X1564901Y91569D01*
X1563795Y90362D01*
X1562638Y89205D01*
X1561431Y88099D01*
X1560178Y87047D01*
X1558879Y86051D01*
X1557539Y85112D01*
X1556159Y84233D01*
X1554741Y83415D01*
X1553290Y82659D01*
X1551807Y81968D01*
X1550295Y81341D01*
X1548757Y80782D01*
X1547196Y80290D01*
X1545615Y79866D01*
X1544018Y79512D01*
X1542406Y79228D01*
X1540783Y79014D01*
X1539153Y78871D01*
X1537518Y78800D01*
X1535882Y78800D01*
X1534247Y78871D01*
X1532617Y79014D01*
X1530994Y79228D01*
X1529382Y79512D01*
X1527785Y79866D01*
X1526204Y80290D01*
X1524643Y80782D01*
X1523105Y81341D01*
X1521593Y81968D01*
X1520110Y82659D01*
X1518659Y83415D01*
X1517241Y84233D01*
X1515861Y85112D01*
X1514521Y86051D01*
X1513222Y87047D01*
X1511969Y88099D01*
X1510762Y89205D01*
X1509605Y90362D01*
X1508499Y91569D01*
X1507447Y92822D01*
X1506451Y94121D01*
X1505512Y95461D01*
X1504633Y96841D01*
X1503815Y98259D01*
X1503059Y99710D01*
X1502368Y101193D01*
X1501741Y102705D01*
X1501182Y104243D01*
X1500690Y105804D01*
X1500266Y107385D01*
X1499912Y108982D01*
X1499628Y110594D01*
X1499414Y112217D01*
X1499271Y113847D01*
X1499200Y115482D01*
X1499200Y117118D01*
X1599700Y116836D02*
X1599776Y117904D01*
X1599929Y118965D01*
X1600157Y120012D01*
X1600459Y121040D01*
X1600833Y122044D01*
X1601278Y123019D01*
X1601792Y123959D01*
X1602371Y124860D01*
X1603013Y125718D01*
X1603715Y126528D01*
X1604472Y127285D01*
X1605282Y127987D01*
X1606140Y128629D01*
X1607041Y129208D01*
X1607981Y129722D01*
X1608956Y130167D01*
X1609960Y130541D01*
X1610988Y130843D01*
X1612035Y131071D01*
X1613096Y131224D01*
X1614164Y131300D01*
X1615236Y131300D01*
X1616304Y131224D01*
X1617365Y131071D01*
X1618412Y130843D01*
X1619440Y130541D01*
X1620444Y130167D01*
X1621419Y129722D01*
X1622359Y129208D01*
X1623260Y128629D01*
X1624118Y127987D01*
X1624928Y127285D01*
X1625685Y126528D01*
X1626387Y125718D01*
X1627029Y124860D01*
X1627608Y123959D01*
X1628122Y123019D01*
X1628567Y122044D01*
X1628941Y121040D01*
X1629243Y120012D01*
X1629471Y118965D01*
X1629624Y117904D01*
X1629700Y116836D01*
X1629700Y115764D01*
X1629624Y114696D01*
X1629471Y113635D01*
X1629243Y112588D01*
X1628941Y111560D01*
X1628567Y110556D01*
X1628122Y109581D01*
X1627608Y108641D01*
X1627029Y107740D01*
X1626387Y106882D01*
X1625685Y106072D01*
X1624928Y105315D01*
X1624118Y104613D01*
X1623260Y103971D01*
X1622359Y103392D01*
X1621419Y102878D01*
X1620444Y102433D01*
X1619440Y102059D01*
X1618412Y101757D01*
X1617365Y101529D01*
X1616304Y101376D01*
X1615236Y101300D01*
X1614164Y101300D01*
X1613096Y101376D01*
X1612035Y101529D01*
X1610988Y101757D01*
X1609960Y102059D01*
X1608956Y102433D01*
X1607981Y102878D01*
X1607041Y103392D01*
X1606140Y103971D01*
X1605282Y104613D01*
X1604472Y105315D01*
X1603715Y106072D01*
X1603013Y106882D01*
X1602371Y107740D01*
X1601792Y108641D01*
X1601278Y109581D01*
X1600833Y110556D01*
X1600459Y111560D01*
X1600157Y112588D01*
X1599929Y113635D01*
X1599776Y114696D01*
X1599700Y115764D01*
X1599700Y116836D01*
M02*
