G04 EAGLE Gerber RS-274X export*
G75*
%MOMM*%
%FSLAX34Y34*%
%LPD*%
%INSolderpaste Bottom*%
%IPPOS*%
%AMOC8*
5,1,8,0,0,1.08239X$1,22.5*%
G01*
%ADD10R,1.500000X1.300000*%
%ADD11R,1.300000X1.500000*%
%ADD12R,1.850000X0.650000*%
%ADD13R,1.450000X0.450000*%
%ADD14R,1.270000X2.540000*%
%ADD15R,1.600200X1.168400*%


D10*
X1689100Y542900D03*
X1689100Y523900D03*
D11*
X1578000Y419100D03*
X1597000Y419100D03*
D12*
X1591550Y571500D03*
X1591550Y584200D03*
X1591550Y596900D03*
X1591550Y609600D03*
X1591550Y622300D03*
X1591550Y635000D03*
X1591550Y647700D03*
X1591550Y660400D03*
X1591550Y673100D03*
X1685050Y673100D03*
X1685050Y660400D03*
X1685050Y647700D03*
X1685050Y635000D03*
X1685050Y622300D03*
X1685050Y609600D03*
X1685050Y596900D03*
X1685050Y584200D03*
X1685050Y571500D03*
D13*
X1642150Y404050D03*
X1642150Y397550D03*
X1642150Y391050D03*
X1642150Y384550D03*
X1642150Y378050D03*
X1642150Y371550D03*
X1642150Y365050D03*
X1642150Y358550D03*
X1642150Y352050D03*
X1642150Y345550D03*
X1642150Y339050D03*
X1642150Y332550D03*
X1583650Y332550D03*
X1583650Y339050D03*
X1583650Y345550D03*
X1583650Y352050D03*
X1583650Y358550D03*
X1583650Y365050D03*
X1583650Y371550D03*
X1583650Y378050D03*
X1583650Y384550D03*
X1583650Y391050D03*
X1583650Y397550D03*
X1583650Y404050D03*
D11*
X1514500Y438150D03*
X1533500Y438150D03*
X1774800Y584200D03*
X1755800Y584200D03*
X1731620Y596900D03*
X1712620Y596900D03*
X1774800Y609600D03*
X1755800Y609600D03*
X1731620Y622300D03*
X1712620Y622300D03*
X1774800Y635000D03*
X1755800Y635000D03*
X1732890Y647700D03*
X1713890Y647700D03*
X1774800Y660400D03*
X1755800Y660400D03*
X1731620Y673100D03*
X1712620Y673100D03*
D10*
X1993900Y796900D03*
X1993900Y777900D03*
X1968500Y796900D03*
X1968500Y777900D03*
X1943100Y796900D03*
X1943100Y777900D03*
D11*
X1952600Y177800D03*
X1933600Y177800D03*
X2009800Y177800D03*
X2028800Y177800D03*
D14*
X2171700Y495300D03*
X2197100Y495300D03*
D10*
X1536700Y663600D03*
X1536700Y682600D03*
D15*
X2222500Y718820D03*
X2222500Y703580D03*
X2184400Y718820D03*
X2184400Y703580D03*
D11*
X2212950Y673100D03*
X2193950Y673100D03*
M02*
