G04 EAGLE Gerber RS-274X export*
G75*
%MOMM*%
%FSLAX34Y34*%
%LPD*%
%INSoldermask Top*%
%IPPOS*%
%AMOC8*
5,1,8,0,0,1.08239X$1,22.5*%
G01*
%ADD10C,3.403200*%
%ADD11R,1.503200X1.703200*%
%ADD12R,1.703200X1.703200*%
%ADD13P,1.759533X8X22.500000*%
%ADD14P,1.759533X8X202.500000*%
%ADD15R,1.625600X1.625600*%
%ADD16R,1.703200X1.503200*%
%ADD17C,2.303200*%
%ADD18C,7.703200*%
%ADD19C,3.203200*%
%ADD20P,1.979475X8X292.500000*%
%ADD21P,1.979475X8X112.500000*%
%ADD22R,1.812800X1.812800*%
%ADD23P,1.962157X8X22.500000*%
%ADD24C,4.703200*%
%ADD25R,1.203200X1.603200*%
%ADD26C,1.625600*%
%ADD27R,0.893200X1.193200*%
%ADD28R,2.053200X0.853200*%
%ADD29R,1.678200X0.653200*%
%ADD30C,1.812800*%
%ADD31R,1.193200X0.893200*%
%ADD32R,1.103200X1.703200*%
%ADD33R,1.703200X1.103200*%
%ADD34C,1.603200*%


D10*
X38100Y38100D03*
X38100Y787400D03*
X2235200Y787400D03*
X2235200Y38100D03*
D11*
X434950Y419100D03*
X415950Y419100D03*
X434950Y304800D03*
X415950Y304800D03*
D12*
X1643100Y736600D03*
X1608100Y736600D03*
D13*
X101600Y304800D03*
X127000Y304800D03*
X304800Y304800D03*
X330200Y304800D03*
X508000Y304800D03*
X533400Y304800D03*
X711200Y304800D03*
X736600Y304800D03*
X914400Y304800D03*
X939800Y304800D03*
X1117600Y304800D03*
X1143000Y304800D03*
X1320800Y304800D03*
X1346200Y304800D03*
X1524000Y304800D03*
X1549400Y304800D03*
X101600Y419100D03*
X127000Y419100D03*
X304800Y419100D03*
X330200Y419100D03*
X508000Y419100D03*
X533400Y419100D03*
X711200Y419100D03*
X736600Y419100D03*
X914400Y419100D03*
X939800Y419100D03*
X1117600Y419100D03*
X1143000Y419100D03*
X1320800Y419100D03*
X1346200Y419100D03*
D14*
X1549400Y419100D03*
X1524000Y419100D03*
D15*
X2044700Y673100D03*
D13*
X2044700Y647700D03*
X2044700Y622300D03*
X2044700Y596900D03*
X2044700Y571500D03*
X2120900Y571500D03*
X2120900Y596900D03*
X2120900Y622300D03*
X2120900Y647700D03*
X2120900Y673100D03*
D15*
X1943100Y673100D03*
D13*
X1943100Y647700D03*
X1943100Y622300D03*
X1943100Y596900D03*
X1943100Y571500D03*
X2019300Y571500D03*
X2019300Y596900D03*
X2019300Y622300D03*
X2019300Y647700D03*
X2019300Y673100D03*
D15*
X1841500Y673100D03*
D13*
X1841500Y647700D03*
X1841500Y622300D03*
X1841500Y596900D03*
X1841500Y571500D03*
X1917700Y571500D03*
X1917700Y596900D03*
X1917700Y622300D03*
X1917700Y647700D03*
X1917700Y673100D03*
D16*
X2070100Y777900D03*
X2070100Y796900D03*
D17*
X164300Y251800D02*
X164300Y230800D01*
X114300Y230800D02*
X114300Y251800D01*
X64300Y251800D02*
X64300Y230800D01*
D18*
X114300Y116300D03*
D19*
X192300Y116300D03*
D16*
X2044700Y777900D03*
X2044700Y796900D03*
X2019300Y777900D03*
X2019300Y796900D03*
D11*
X1616100Y762000D03*
X1635100Y762000D03*
D20*
X136906Y769112D03*
X136906Y704088D03*
X91694Y769112D03*
X91694Y704088D03*
X949706Y591312D03*
X949706Y526288D03*
X904494Y591312D03*
X904494Y526288D03*
X1356106Y769112D03*
X1356106Y704088D03*
X1310894Y769112D03*
X1310894Y704088D03*
D21*
X1514094Y526288D03*
X1514094Y591312D03*
X1559306Y526288D03*
X1559306Y591312D03*
X1514094Y704088D03*
X1514094Y769112D03*
X1559306Y704088D03*
X1559306Y769112D03*
X1310894Y526288D03*
X1310894Y591312D03*
X1356106Y526288D03*
X1356106Y591312D03*
D22*
X1955800Y152400D03*
D23*
X2005800Y152400D03*
X1980800Y152400D03*
X1955800Y297400D03*
X2005800Y297400D03*
D24*
X1925800Y227400D03*
X2035800Y227400D03*
D20*
X340106Y769112D03*
X340106Y704088D03*
X294894Y769112D03*
X294894Y704088D03*
X543306Y769112D03*
X543306Y704088D03*
X498094Y769112D03*
X498094Y704088D03*
X746506Y769112D03*
X746506Y704088D03*
X701294Y769112D03*
X701294Y704088D03*
X949706Y769112D03*
X949706Y704088D03*
X904494Y769112D03*
X904494Y704088D03*
X136906Y591312D03*
X136906Y526288D03*
X91694Y591312D03*
X91694Y526288D03*
X340106Y591312D03*
X340106Y526288D03*
X294894Y591312D03*
X294894Y526288D03*
X543306Y591312D03*
X543306Y526288D03*
X498094Y591312D03*
X498094Y526288D03*
X746506Y591312D03*
X746506Y526288D03*
X701294Y591312D03*
X701294Y526288D03*
D25*
X2003400Y722200D03*
X1984400Y722200D03*
X1993900Y700200D03*
X1965300Y722200D03*
X1946300Y722200D03*
X1955800Y700200D03*
X1927200Y722200D03*
X1908200Y722200D03*
X1917700Y700200D03*
D26*
X2095500Y464312D02*
X2095500Y450088D01*
X2070100Y450088D02*
X2070100Y464312D01*
X2044700Y464312D02*
X2044700Y450088D01*
X2019300Y450088D02*
X2019300Y464312D01*
X1993900Y464312D02*
X1993900Y450088D01*
X1968500Y450088D02*
X1968500Y464312D01*
D17*
X367500Y251800D02*
X367500Y230800D01*
X317500Y230800D02*
X317500Y251800D01*
X267500Y251800D02*
X267500Y230800D01*
D18*
X317500Y116300D03*
D19*
X395500Y116300D03*
D17*
X570700Y230800D02*
X570700Y251800D01*
X520700Y251800D02*
X520700Y230800D01*
X470700Y230800D02*
X470700Y251800D01*
D18*
X520700Y116300D03*
D19*
X598700Y116300D03*
D17*
X773900Y230800D02*
X773900Y251800D01*
X723900Y251800D02*
X723900Y230800D01*
X673900Y230800D02*
X673900Y251800D01*
D18*
X723900Y116300D03*
D19*
X801900Y116300D03*
D17*
X977100Y230800D02*
X977100Y251800D01*
X927100Y251800D02*
X927100Y230800D01*
X877100Y230800D02*
X877100Y251800D01*
D18*
X927100Y116300D03*
D19*
X1005100Y116300D03*
D17*
X1180300Y230800D02*
X1180300Y251800D01*
X1130300Y251800D02*
X1130300Y230800D01*
X1080300Y230800D02*
X1080300Y251800D01*
D18*
X1130300Y116300D03*
D19*
X1208300Y116300D03*
D17*
X1383500Y230800D02*
X1383500Y251800D01*
X1333500Y251800D02*
X1333500Y230800D01*
X1283500Y230800D02*
X1283500Y251800D01*
D18*
X1333500Y116300D03*
D19*
X1411500Y116300D03*
D17*
X1586700Y230800D02*
X1586700Y251800D01*
X1536700Y251800D02*
X1536700Y230800D01*
X1486700Y230800D02*
X1486700Y251800D01*
D18*
X1536700Y116300D03*
D19*
X1614700Y116300D03*
D27*
X2168500Y470100D03*
X2159000Y470100D03*
X2149500Y470100D03*
X2149500Y444200D03*
X2168500Y444200D03*
D28*
X1685050Y520700D03*
X1685050Y533400D03*
X1685050Y546100D03*
X1685050Y558800D03*
X1685050Y571500D03*
X1685050Y584200D03*
X1685050Y596900D03*
X1685050Y609600D03*
X1685050Y622300D03*
X1591550Y622300D03*
X1591550Y609600D03*
X1591550Y596900D03*
X1591550Y584200D03*
X1591550Y571500D03*
X1591550Y558800D03*
X1591550Y546100D03*
X1591550Y533400D03*
X1591550Y520700D03*
D16*
X1689100Y669900D03*
X1689100Y650900D03*
D12*
X1671600Y736600D03*
X1706600Y736600D03*
D11*
X1698600Y762000D03*
X1679600Y762000D03*
D29*
X1647020Y187850D03*
X1647020Y181350D03*
X1647020Y174850D03*
X1647020Y168350D03*
X1647020Y161850D03*
X1647020Y155350D03*
X1647020Y148850D03*
X1647020Y142350D03*
X1705780Y142350D03*
X1705780Y148850D03*
X1705780Y155350D03*
X1705780Y161850D03*
X1705780Y168350D03*
X1705780Y174850D03*
X1705780Y181350D03*
X1705780Y187850D03*
D16*
X1739900Y193700D03*
X1739900Y212700D03*
X1612900Y238100D03*
X1612900Y219100D03*
X2197100Y447700D03*
X2197100Y466700D03*
D30*
X1765300Y741252D02*
X1765300Y757348D01*
X1790700Y757348D02*
X1790700Y741252D01*
X1816100Y741252D02*
X1816100Y757348D01*
X1841500Y757348D02*
X1841500Y741252D01*
X1866900Y741252D02*
X1866900Y757348D01*
X1892300Y757348D02*
X1892300Y741252D01*
X1917700Y741252D02*
X1917700Y757348D01*
X1943100Y757348D02*
X1943100Y741252D01*
X1968500Y741252D02*
X1968500Y757348D01*
X1993900Y757348D02*
X1993900Y741252D01*
X2019300Y741252D02*
X2019300Y757348D01*
X2044700Y757348D02*
X2044700Y741252D01*
X2070100Y741252D02*
X2070100Y757348D01*
X2095500Y757348D02*
X2095500Y741252D01*
X2120900Y741252D02*
X2120900Y757348D01*
X2146300Y757348D02*
X2146300Y741252D01*
X2171700Y741252D02*
X2171700Y757348D01*
X2197100Y757348D02*
X2197100Y741252D01*
X2222500Y741252D02*
X2222500Y757348D01*
X1765300Y503348D02*
X1765300Y487252D01*
X1790700Y487252D02*
X1790700Y503348D01*
X1816100Y503348D02*
X1816100Y487252D01*
X1841500Y487252D02*
X1841500Y503348D01*
X1866900Y503348D02*
X1866900Y487252D01*
X1892300Y487252D02*
X1892300Y503348D01*
X1917700Y503348D02*
X1917700Y487252D01*
X1943100Y487252D02*
X1943100Y503348D01*
X1968500Y503348D02*
X1968500Y487252D01*
X1993900Y487252D02*
X1993900Y503348D01*
X2019300Y503348D02*
X2019300Y487252D01*
X2044700Y487252D02*
X2044700Y503348D01*
X2070100Y503348D02*
X2070100Y487252D01*
X2095500Y487252D02*
X2095500Y503348D01*
X2120900Y503348D02*
X2120900Y487252D01*
X2146300Y487252D02*
X2146300Y503348D01*
X2222500Y503348D02*
X2222500Y487252D01*
D31*
X1714300Y542900D03*
X1714300Y533400D03*
X1714300Y523900D03*
X1740200Y523900D03*
X1740200Y542900D03*
D11*
X2079600Y533400D03*
X2060600Y533400D03*
D16*
X1714500Y358800D03*
X1714500Y377800D03*
D32*
X2142500Y204100D03*
X2175500Y204100D03*
X2175500Y253100D03*
X2142500Y253100D03*
D33*
G36*
X2116095Y131349D02*
X2107579Y116599D01*
X2098027Y122115D01*
X2106543Y136865D01*
X2116095Y131349D01*
G37*
G36*
X2144673Y114849D02*
X2136157Y100099D01*
X2126605Y105615D01*
X2135121Y120365D01*
X2144673Y114849D01*
G37*
G36*
X2169173Y157285D02*
X2160657Y142535D01*
X2151105Y148051D01*
X2159621Y162801D01*
X2169173Y157285D01*
G37*
G36*
X2140595Y173785D02*
X2132079Y159035D01*
X2122527Y164551D01*
X2131043Y179301D01*
X2140595Y173785D01*
G37*
G36*
X2050765Y77721D02*
X2036015Y69205D01*
X2030499Y78757D01*
X2045249Y87273D01*
X2050765Y77721D01*
G37*
G36*
X2067265Y49143D02*
X2052515Y40627D01*
X2046999Y50179D01*
X2061749Y58695D01*
X2067265Y49143D01*
G37*
G36*
X2109701Y73643D02*
X2094951Y65127D01*
X2089435Y74679D01*
X2104185Y83195D01*
X2109701Y73643D01*
G37*
G36*
X2093201Y102221D02*
X2078451Y93705D01*
X2072935Y103257D01*
X2087685Y111773D01*
X2093201Y102221D01*
G37*
X1956700Y67300D03*
X1956700Y34300D03*
X2005700Y34300D03*
X2005700Y67300D03*
G36*
X1883949Y93705D02*
X1869199Y102221D01*
X1874715Y111773D01*
X1889465Y103257D01*
X1883949Y93705D01*
G37*
G36*
X1867449Y65127D02*
X1852699Y73643D01*
X1858215Y83195D01*
X1872965Y74679D01*
X1867449Y65127D01*
G37*
G36*
X1909885Y40627D02*
X1895135Y49143D01*
X1900651Y58695D01*
X1915401Y50179D01*
X1909885Y40627D01*
G37*
G36*
X1926385Y69205D02*
X1911635Y77721D01*
X1917151Y87273D01*
X1931901Y78757D01*
X1926385Y69205D01*
G37*
G36*
X1830321Y159035D02*
X1821805Y173785D01*
X1831357Y179301D01*
X1839873Y164551D01*
X1830321Y159035D01*
G37*
G36*
X1801743Y142535D02*
X1793227Y157285D01*
X1802779Y162801D01*
X1811295Y148051D01*
X1801743Y142535D01*
G37*
G36*
X1826243Y100099D02*
X1817727Y114849D01*
X1827279Y120365D01*
X1835795Y105615D01*
X1826243Y100099D01*
G37*
G36*
X1854821Y116599D02*
X1846305Y131349D01*
X1855857Y136865D01*
X1864373Y122115D01*
X1854821Y116599D01*
G37*
D32*
X1819900Y253100D03*
X1786900Y253100D03*
X1786900Y204100D03*
X1819900Y204100D03*
D33*
G36*
X1846305Y325851D02*
X1854821Y340601D01*
X1864373Y335085D01*
X1855857Y320335D01*
X1846305Y325851D01*
G37*
G36*
X1817727Y342351D02*
X1826243Y357101D01*
X1835795Y351585D01*
X1827279Y336835D01*
X1817727Y342351D01*
G37*
G36*
X1793227Y299915D02*
X1801743Y314665D01*
X1811295Y309149D01*
X1802779Y294399D01*
X1793227Y299915D01*
G37*
G36*
X1821805Y283415D02*
X1830321Y298165D01*
X1839873Y292649D01*
X1831357Y277899D01*
X1821805Y283415D01*
G37*
G36*
X1911635Y379479D02*
X1926385Y387995D01*
X1931901Y378443D01*
X1917151Y369927D01*
X1911635Y379479D01*
G37*
G36*
X1895135Y408057D02*
X1909885Y416573D01*
X1915401Y407021D01*
X1900651Y398505D01*
X1895135Y408057D01*
G37*
G36*
X1852699Y383557D02*
X1867449Y392073D01*
X1872965Y382521D01*
X1858215Y374005D01*
X1852699Y383557D01*
G37*
G36*
X1869199Y354979D02*
X1883949Y363495D01*
X1889465Y353943D01*
X1874715Y345427D01*
X1869199Y354979D01*
G37*
X2005700Y389900D03*
X2005700Y422900D03*
X1956700Y422900D03*
X1956700Y389900D03*
G36*
X2078451Y363495D02*
X2093201Y354979D01*
X2087685Y345427D01*
X2072935Y353943D01*
X2078451Y363495D01*
G37*
G36*
X2094951Y392073D02*
X2109701Y383557D01*
X2104185Y374005D01*
X2089435Y382521D01*
X2094951Y392073D01*
G37*
G36*
X2052515Y416573D02*
X2067265Y408057D01*
X2061749Y398505D01*
X2046999Y407021D01*
X2052515Y416573D01*
G37*
G36*
X2036015Y387995D02*
X2050765Y379479D01*
X2045249Y369927D01*
X2030499Y378443D01*
X2036015Y387995D01*
G37*
G36*
X2132079Y298165D02*
X2140595Y283415D01*
X2131043Y277899D01*
X2122527Y292649D01*
X2132079Y298165D01*
G37*
G36*
X2160657Y314665D02*
X2169173Y299915D01*
X2159621Y294399D01*
X2151105Y309149D01*
X2160657Y314665D01*
G37*
G36*
X2136157Y357101D02*
X2144673Y342351D01*
X2135121Y336835D01*
X2126605Y351585D01*
X2136157Y357101D01*
G37*
G36*
X2107579Y340601D02*
X2116095Y325851D01*
X2106543Y320335D01*
X2098027Y335085D01*
X2107579Y340601D01*
G37*
D11*
G36*
X1908810Y357617D02*
X1921828Y365133D01*
X1930344Y350383D01*
X1917326Y342867D01*
X1908810Y357617D01*
G37*
G36*
X1892356Y348117D02*
X1905374Y355633D01*
X1913890Y340883D01*
X1900872Y333367D01*
X1892356Y348117D01*
G37*
X1990700Y368300D03*
X1971700Y368300D03*
G36*
X2057026Y355633D02*
X2070044Y348117D01*
X2061528Y333367D01*
X2048510Y340883D01*
X2057026Y355633D01*
G37*
G36*
X2040572Y365133D02*
X2053590Y357617D01*
X2045074Y342867D01*
X2032056Y350383D01*
X2040572Y365133D01*
G37*
G36*
X2110217Y300990D02*
X2117733Y287972D01*
X2102983Y279456D01*
X2095467Y292474D01*
X2110217Y300990D01*
G37*
G36*
X2100717Y317444D02*
X2108233Y304426D01*
X2093483Y295910D01*
X2085967Y308928D01*
X2100717Y317444D01*
G37*
G36*
X1905374Y101567D02*
X1892356Y109083D01*
X1900872Y123833D01*
X1913890Y116317D01*
X1905374Y101567D01*
G37*
G36*
X1921828Y92067D02*
X1908810Y99583D01*
X1917326Y114333D01*
X1930344Y106817D01*
X1921828Y92067D01*
G37*
G36*
X1852183Y156210D02*
X1844667Y169228D01*
X1859417Y177744D01*
X1866933Y164726D01*
X1852183Y156210D01*
G37*
G36*
X1861683Y139756D02*
X1854167Y152774D01*
X1868917Y161290D01*
X1876433Y148272D01*
X1861683Y139756D01*
G37*
D16*
X1841500Y238100D03*
X1841500Y219100D03*
D11*
G36*
X1854167Y304426D02*
X1861683Y317444D01*
X1876433Y308928D01*
X1868917Y295910D01*
X1854167Y304426D01*
G37*
G36*
X1844667Y287972D02*
X1852183Y300990D01*
X1866933Y292474D01*
X1859417Y279456D01*
X1844667Y287972D01*
G37*
D16*
X2120900Y219100D03*
X2120900Y238100D03*
D11*
G36*
X2108233Y152774D02*
X2100717Y139756D01*
X2085967Y148272D01*
X2093483Y161290D01*
X2108233Y152774D01*
G37*
G36*
X2117733Y169228D02*
X2110217Y156210D01*
X2095467Y164726D01*
X2102983Y177744D01*
X2117733Y169228D01*
G37*
G36*
X2053590Y99583D02*
X2040572Y92067D01*
X2032056Y106817D01*
X2045074Y114333D01*
X2053590Y99583D01*
G37*
G36*
X2070044Y109083D02*
X2057026Y101567D01*
X2048510Y116317D01*
X2061528Y123833D01*
X2070044Y109083D01*
G37*
X1971700Y88900D03*
X1990700Y88900D03*
D15*
X1219200Y596900D03*
D26*
X1193800Y604012D02*
X1193800Y589788D01*
X1066800Y589788D02*
X1066800Y604012D01*
X1041400Y604012D02*
X1041400Y589788D01*
X1168400Y589788D02*
X1168400Y604012D01*
X1143000Y604012D02*
X1143000Y589788D01*
X1092200Y589788D02*
X1092200Y604012D01*
X1117600Y604012D02*
X1117600Y589788D01*
X1041400Y527812D02*
X1041400Y513588D01*
X1066800Y513588D02*
X1066800Y527812D01*
X1092200Y527812D02*
X1092200Y513588D01*
X1117600Y513588D02*
X1117600Y527812D01*
X1143000Y527812D02*
X1143000Y513588D01*
X1168400Y513588D02*
X1168400Y527812D01*
X1193800Y527812D02*
X1193800Y513588D01*
X1219200Y513588D02*
X1219200Y527812D01*
D15*
X1219200Y774700D03*
D26*
X1193800Y781812D02*
X1193800Y767588D01*
X1066800Y767588D02*
X1066800Y781812D01*
X1041400Y781812D02*
X1041400Y767588D01*
X1168400Y767588D02*
X1168400Y781812D01*
X1143000Y781812D02*
X1143000Y767588D01*
X1092200Y767588D02*
X1092200Y781812D01*
X1117600Y781812D02*
X1117600Y767588D01*
X1041400Y705612D02*
X1041400Y691388D01*
X1066800Y691388D02*
X1066800Y705612D01*
X1092200Y705612D02*
X1092200Y691388D01*
X1117600Y691388D02*
X1117600Y705612D01*
X1143000Y705612D02*
X1143000Y691388D01*
X1168400Y691388D02*
X1168400Y705612D01*
X1193800Y705612D02*
X1193800Y691388D01*
X1219200Y691388D02*
X1219200Y705612D01*
D16*
X1003300Y676300D03*
X1003300Y695300D03*
X1016000Y549300D03*
X1016000Y568300D03*
D26*
X1389888Y723900D02*
X1404112Y723900D01*
X1404112Y698500D02*
X1389888Y698500D01*
X1389888Y571500D02*
X1404112Y571500D01*
X1466088Y571500D02*
X1480312Y571500D01*
X1404112Y673100D02*
X1389888Y673100D01*
X1389888Y647700D02*
X1404112Y647700D01*
X1404112Y596900D02*
X1389888Y596900D01*
X1389888Y622300D02*
X1404112Y622300D01*
X1466088Y596900D02*
X1480312Y596900D01*
X1480312Y622300D02*
X1466088Y622300D01*
X1466088Y647700D02*
X1480312Y647700D01*
X1480312Y673100D02*
X1466088Y673100D01*
X1466088Y698500D02*
X1480312Y698500D01*
X1480312Y723900D02*
X1466088Y723900D01*
D16*
X850900Y695300D03*
X850900Y676300D03*
X825500Y695300D03*
X825500Y676300D03*
X800100Y695300D03*
X800100Y676300D03*
X774700Y695300D03*
X774700Y676300D03*
X876300Y695300D03*
X876300Y676300D03*
X800100Y600100D03*
X800100Y619100D03*
X825500Y600100D03*
X825500Y619100D03*
X850900Y600100D03*
X850900Y619100D03*
X774700Y600100D03*
X774700Y619100D03*
X876300Y600100D03*
X876300Y619100D03*
D34*
X355600Y203200D03*
X571500Y190500D03*
X787400Y177800D03*
X1003300Y165100D03*
X1714500Y127000D03*
X1727200Y139700D03*
X1739900Y152400D03*
X1663700Y469900D03*
X1612900Y584200D03*
X1816100Y419100D03*
X1689100Y495300D03*
X2082800Y266700D03*
X2146300Y406400D03*
X1790700Y444500D03*
X1612900Y495300D03*
X1866900Y698500D03*
X1727200Y495300D03*
X1638300Y596900D03*
X1638300Y698500D03*
X1752600Y266700D03*
X1638300Y266700D03*
X1981200Y203200D03*
X2222500Y546100D03*
X1790700Y698500D03*
X1727200Y698500D03*
X1917700Y774700D03*
X1562100Y635000D03*
X2120900Y546100D03*
X1473200Y749300D03*
X1625600Y647700D03*
X850900Y749300D03*
X800100Y571500D03*
X825500Y558800D03*
X850900Y546100D03*
X800100Y723900D03*
X1168400Y647700D03*
X990600Y622300D03*
X825500Y736600D03*
X1866900Y584200D03*
X1816100Y596900D03*
X1803400Y609600D03*
X1803400Y635000D03*
X1612900Y393700D03*
X1676400Y368300D03*
X1689100Y355600D03*
X1676400Y342900D03*
X1663700Y330200D03*
X1593850Y317500D03*
X1619250Y317500D03*
X1981200Y533400D03*
X1676400Y228600D03*
X1663700Y571500D03*
X1766773Y560273D03*
X1612900Y546100D03*
X1663700Y685800D03*
X1651000Y215900D03*
X1955800Y266700D03*
X2057400Y266700D03*
X1612900Y190500D03*
X1663700Y114300D03*
X1422400Y673100D03*
X1333500Y558800D03*
X1536700Y520700D03*
X1435100Y546100D03*
X1727200Y76200D03*
X1447800Y723900D03*
X1727200Y571500D03*
X1689100Y381000D03*
M02*
