%
M48
M72
T01C0.01969
T02C0.03200
T03C0.03937
T04C0.05512
T05C0.11811
T06C0.12598
T07C0.29528
%
T01
X310000Y70000
X395000Y65000
X225000Y75000
X140000Y80000
X335000Y215000
X325000Y220000
X315000Y225000
X390000Y245000
X460000Y255000
X525000Y220000
X565000Y215000
X605000Y205000
X635000Y185000
X655000Y190000
X665000Y195000
X680000Y195000
X690000Y175000
X715000Y165000
X685000Y155000
X660000Y145000
X665000Y140000
X660000Y135000
X655000Y130000
X637500Y125000
X627500Y125000
X655000Y105000
X650000Y85000
X690000Y105000
X770000Y105000
X810000Y105000
X820000Y105000
X780000Y80000
X700000Y50000
X685000Y60000
X680000Y55000
X675000Y50000
X655000Y45000
X680000Y30000
X680000Y15000
X635000Y155000
X640000Y215000
X655000Y225000
X645000Y235000
X635000Y230000
X615000Y250000
X640000Y255000
X655000Y270000
X645000Y275000
X680000Y275000
X705000Y275000
X735000Y275000
X710000Y250000
X710000Y240000
X715000Y235000
X735000Y230000
X695000Y220000
X685000Y220000
X675000Y225000
X560000Y265000
X570000Y285000
X580000Y295000
X755000Y305000
X835000Y215000
X875000Y215000
X845000Y160000
X335000Y295000
X325000Y290000
X315000Y285000
T02
X410000Y275000
X420000Y275000
X430000Y275000
X440000Y275000
X450000Y275000
X460000Y275000
X470000Y275000
X480000Y275000
X480000Y305000
X470000Y305000
X460000Y305000
X450000Y305000
X440000Y305000
X430000Y305000
X420000Y305000
X410000Y305000
X550000Y285000
X550000Y275000
X550000Y265000
X550000Y255000
X550000Y245000
X550000Y235000
X550000Y225000
X580000Y225000
X580000Y235000
X580000Y245000
X580000Y255000
X580000Y265000
X580000Y275000
X580000Y285000
X480000Y235000
X470000Y235000
X460000Y235000
X450000Y235000
X440000Y235000
X430000Y235000
X420000Y235000
X410000Y235000
X410000Y205000
X420000Y205000
X430000Y205000
X440000Y205000
X450000Y205000
X460000Y205000
X470000Y205000
X480000Y205000
X450000Y165000
X440000Y165000
X370000Y165000
X360000Y165000
X290000Y165000
X280000Y165000
X210000Y165000
X200000Y165000
X130000Y165000
X120000Y165000
X50000Y165000
X40000Y165000
X40000Y120000
X50000Y120000
X120000Y120000
X130000Y120000
X200000Y120000
X210000Y120000
X280000Y120000
X290000Y120000
X360000Y120000
X370000Y120000
X440000Y120000
X450000Y120000
X520000Y120000
X530000Y120000
X600000Y120000
X610000Y120000
X610000Y165000
X600000Y165000
X530000Y165000
X520000Y165000
X725000Y225000
X725000Y235000
X725000Y245000
X725000Y255000
X725000Y265000
X755000Y265000
X765000Y265000
X765000Y255000
X755000Y255000
X755000Y245000
X765000Y245000
X765000Y235000
X755000Y235000
X755000Y225000
X765000Y225000
X795000Y225000
X805000Y225000
X805000Y235000
X795000Y235000
X795000Y245000
X805000Y245000
X805000Y255000
X795000Y255000
X795000Y265000
X805000Y265000
X835000Y265000
X835000Y255000
X835000Y245000
X835000Y235000
X835000Y225000
X825000Y180000
X815000Y180000
X805000Y180000
X795000Y180000
X785000Y180000
X775000Y180000
T03
X775000Y195000
X765000Y195000
X755000Y195000
X745000Y195000
X735000Y195000
X725000Y195000
X715000Y195000
X705000Y195000
X695000Y195000
X613900Y207200
X596100Y207200
X596100Y232800
X613900Y232800
X533900Y232800
X516100Y232800
X516100Y207200
X533900Y207200
X533900Y277200
X516100Y277200
X516100Y302800
X533900Y302800
X596100Y302800
X613900Y302800
X613900Y277200
X596100Y277200
X695000Y295000
X705000Y295000
X715000Y295000
X725000Y295000
X735000Y295000
X745000Y295000
X755000Y295000
X765000Y295000
X775000Y295000
X785000Y295000
X795000Y295000
X805000Y295000
X815000Y295000
X825000Y295000
X835000Y295000
X845000Y295000
X855000Y295000
X865000Y295000
X875000Y295000
X875000Y195000
X845000Y195000
X835000Y195000
X825000Y195000
X815000Y195000
X805000Y195000
X795000Y195000
X785000Y195000
X789685Y117087
X770000Y117087
X770000Y60000
X779843Y60000
X789685Y60000
X373900Y207200
X356100Y207200
X356100Y232800
X373900Y232800
X293900Y232800
X276100Y232800
X276100Y207200
X293900Y207200
X213900Y207200
X196100Y207200
X196100Y232800
X213900Y232800
X133900Y232800
X116100Y232800
X116100Y207200
X133900Y207200
X53900Y207200
X36100Y207200
X36100Y232800
X53900Y232800
X53900Y277200
X36100Y277200
X36100Y302800
X53900Y302800
X116100Y302800
X133900Y302800
X133900Y277200
X116100Y277200
X196100Y277200
X213900Y277200
X213900Y302800
X196100Y302800
X276100Y302800
X293900Y302800
X293900Y277200
X276100Y277200
X356100Y277200
X373900Y277200
X373900Y302800
X356100Y302800
T04
X365000Y95000
X345315Y95000
X384685Y95000
X425315Y95000
X445000Y95000
X464685Y95000
X505315Y95000
X525000Y95000
X544685Y95000
X585315Y95000
X605000Y95000
X624685Y95000
X304685Y95000
X285000Y95000
X265315Y95000
X224685Y95000
X205000Y95000
X185315Y95000
X144685Y95000
X125000Y95000
X105315Y95000
X64685Y95000
X45000Y95000
X25315Y95000
T05
X75709Y45787
X155709Y45787
X235709Y45787
X315709Y45787
X395709Y45787
X475709Y45787
X555709Y45787
X635709Y45787
X758189Y89528
X801496Y89528
T06
X15000Y15000
X15000Y310000
X880000Y310000
X880000Y15000
T07
X605000Y45787
X525000Y45787
X445000Y45787
X365000Y45787
X285000Y45787
X205000Y45787
X125000Y45787
X45000Y45787
M30
