M48
;GenerationSoftware,Autodesk,EAGLE,9.6.2*%
;CreationDate,2022-02-16T00:52:53Z*%
FMAT,2
ICI,OFF
METRIC,TZ,000.000
T8C0.700
T7C0.813
T6C1.000
T5C1.016
T4C1.400
T3C3.000
T2C3.200
T1C7.500
%
G90
M71
T1
X133350Y11630
X72390Y11630
X52070Y11630
X31750Y11630
X11430Y11630
X92710Y11630
X113030Y11630
X153670Y11630
T2
X3810Y3810
X3810Y78740
X223520Y78740
X223520Y3810
T3
X80190Y11630
X19230Y11630
X59870Y11630
X203580Y22740
X192580Y22740
X39550Y11630
X100510Y11630
X120830Y11630
X141150Y11630
X161470Y11630
T4
X11430Y24130
X92710Y24130
X108030Y24130
X113030Y24130
X118030Y24130
X87710Y24130
X97710Y24130
X67390Y24130
X72390Y24130
X77390Y24130
X47070Y24130
X52070Y24130
X57070Y24130
X26750Y24130
X31750Y24130
X36750Y24130
X6430Y24130
X16430Y24130
X138350Y24130
X133350Y24130
X128350Y24130
X158670Y24130
X153670Y24130
X148670Y24130
T5
X70129Y76911
X74651Y70409
X74651Y76911
X49809Y70409
X9169Y59131
X49809Y76911
X54331Y70409
X54331Y76911
X29489Y70409
X29489Y76911
X34011Y70409
X34011Y76911
X135611Y59131
X135611Y52629
X131089Y59131
X131089Y52629
X155931Y76911
X155931Y70409
X151409Y76911
X151409Y70409
X155931Y59131
X155931Y52629
X151409Y59131
X151409Y52629
X131089Y70409
X70129Y59131
X70129Y52629
X74651Y52629
X74651Y59131
X49809Y52629
X131089Y76911
X49809Y59131
X54331Y52629
X54331Y59131
X29489Y52629
X29489Y59131
X34011Y52629
X34011Y59131
X9169Y52629
X13691Y76911
X13691Y70409
X9169Y76911
X9169Y70409
X94971Y59131
X94971Y52629
X135611Y70409
X90449Y59131
X90449Y52629
X135611Y76911
X13691Y52629
X13691Y59131
X90449Y70409
X90449Y76911
X94971Y70409
X94971Y76911
X70129Y70409
T6
X200580Y29740
X195580Y15240
X200580Y15240
X198080Y15240
X195580Y29740
X176530Y74930
X179070Y74930
X181610Y74930
X184150Y74930
X186690Y74930
X189230Y74930
X191770Y74930
X194310Y74930
X196850Y74930
X199390Y74930
X201930Y74930
X204470Y74930
X207010Y74930
X209550Y74930
X212090Y74930
X214630Y74930
X217170Y74930
X219710Y74930
X222250Y74930
X176530Y49530
X179070Y49530
X181610Y49530
X184150Y49530
X186690Y49530
X189230Y49530
X191770Y49530
X194310Y49530
X196850Y49530
X199390Y49530
X201930Y49530
X204470Y49530
X207010Y49530
X209550Y49530
X212090Y49530
X214630Y49530
X222250Y49530
T7
X194310Y64770
X194310Y62230
X194310Y59690
X194310Y57150
X201930Y57150
X201930Y59690
X201930Y62230
X201930Y64770
X201930Y67310
X184150Y67310
X184150Y64770
X184150Y62230
X184150Y59690
X184150Y57150
X191770Y57150
X191770Y59690
X191770Y62230
X191770Y64770
X191770Y67310
X114300Y59690
X204470Y62230
X209550Y45720
X207010Y45720
X204470Y45720
X201930Y45720
X199390Y45720
X196850Y45720
X10160Y30480
X12700Y30480
X30480Y30480
X33020Y30480
X50800Y30480
X53340Y30480
X71120Y30480
X73660Y30480
X91440Y30480
X93980Y30480
X111760Y30480
X114300Y30480
X132080Y30480
X134620Y30480
X152400Y30480
X154940Y30480
X10160Y41910
X12700Y41910
X30480Y41910
X33020Y41910
X50800Y41910
X53340Y41910
X71120Y41910
X73660Y41910
X91440Y41910
X93980Y41910
X111760Y41910
X114300Y41910
X132080Y41910
X134620Y41910
X154940Y41910
X152400Y41910
X204470Y67310
X204470Y64770
X204470Y59690
X204470Y57150
X212090Y57150
X212090Y59690
X212090Y62230
X212090Y64770
X212090Y67310
X194310Y67310
X121920Y59690
X119380Y59690
X106680Y59690
X104140Y59690
X116840Y59690
X109220Y59690
X111760Y59690
X104140Y52070
X106680Y52070
X109220Y52070
X111760Y52070
X114300Y52070
X116840Y52070
X119380Y52070
X121920Y52070
X121920Y77470
X119380Y77470
X106680Y77470
X104140Y77470
X116840Y77470
X114300Y77470
X109220Y77470
X111760Y77470
X104140Y69850
X106680Y69850
X109220Y69850
X111760Y69850
X114300Y69850
X116840Y69850
X119380Y69850
X121920Y69850
X139700Y72390
X139700Y69850
X139700Y57150
X147320Y57150
X139700Y67310
X139700Y64770
X139700Y59690
X139700Y62230
X147320Y59690
X147320Y62230
X147320Y64770
X147320Y67310
X147320Y69850
X147320Y72390
T8
X180340Y63500
X181610Y59690
X186690Y58420
X82550Y73660
X99060Y62230
X116840Y64770
X80010Y72390
X85090Y54610
X82550Y55880
X80010Y57150
X85090Y74930
X162560Y64770
X180340Y60960
X147320Y74930
X212090Y54610
X156210Y63500
X191770Y77470
X172720Y69850
X179070Y69850
X222250Y54610
X198120Y20320
X163830Y26670
X175260Y26670
X163830Y69850
X163830Y59690
X172720Y49530
X168910Y38100
X35560Y20320
X172720Y57150
X144780Y72390
X172720Y7620
X143510Y54610
X153670Y52070
X186690Y69850
X161290Y49530
X179070Y44450
X214630Y40640
X208280Y26670
X168910Y49530
X181610Y41910
X161290Y58420
X166370Y46990
X173990Y15240
X172720Y13970
X171450Y12700
X100330Y16510
X78740Y17780
X57150Y19050
X133350Y55880
X142240Y67310
X166370Y11430
X161290Y19050
X205740Y26670
X195580Y26670
X165100Y21590
X166370Y68580
X161290Y54610
X176677Y56027
X166370Y57150
X167640Y22860
X198120Y53340
X161925Y31750
X159385Y31750
X166370Y33020
X167640Y34290
X168910Y35560
X167640Y36830
X161290Y39370
M30